<?xml version="1.0" encoding="utf-8"?>
<!-- Generator: Adobe Illustrator 17.0.0, SVG Export Plug-In . SVG Version: 6.00 Build 0)  -->
<!DOCTYPE svg PUBLIC "-//W3C//DTD SVG 1.1//EN" "http://www.w3.org/Graphics/SVG/1.1/DTD/svg11.dtd">
<svg version="1.1" id="Layer_2" xmlns="http://www.w3.org/2000/svg" xmlns:xlink="http://www.w3.org/1999/xlink" x="0px" y="0px"
	 width="200px" height="40px" viewBox="0 0 200 40" enable-background="new 0 0 200 40" xml:space="preserve">
<path fill="#FFFEF1" d="M200,20c0,11-9,20-20,20H20C9,40,0,31,0,20l0,0C0,9,9,0,20,0h160C191,0,200,9,200,20L200,20z M50.1,34.2
	c3.8,0,5.8-0.8,6.9-2.9c1.1-2.1,1.2-5.6,1.2-11c0-5.4-0.2-8.9-1.2-11c-1.1-2.1-3.1-2.9-6.9-2.9h-3.2v27.8H50.1z M50.9,10.5
	c1.4,0,2.2,0.2,2.6,1.5c0.2,0.7,0.3,1.7,0.4,2.9c0,1.3,0,3.1,0,5.4c0,2.3,0,4,0,5.4s-0.2,2.3-0.4,2.9c-0.4,1.4-1.2,1.5-2.6,1.5V10.5
	z M76.5,12.1c0-1.1-0.3-2.1-0.7-3c-0.3-0.8-0.9-1.5-1.6-2.1c-0.8-0.6-1.8-0.9-3.1-0.9c-1.4,0-2.4,0.4-3.2,0.9s-1.2,1.3-1.6,2.1
	c-0.4,0.9-0.6,1.9-0.7,3v16.4c0,1.1,0.3,2.2,0.7,3c0.3,0.8,0.8,1.5,1.6,2c0.8,0.6,1.8,0.9,3.2,0.9c1.4,0,2.4-0.3,3.1-0.9
	c0.8-0.6,1.3-1.3,1.6-2c0.4-0.9,0.6-1.9,0.7-3V12.1z M72.5,28.5c0,0.4,0,0.8-0.2,1c-0.2,0.6-0.5,1-1.2,1c-0.3,0-0.6-0.1-0.8-0.3
	c-0.4-0.4-0.6-0.9-0.6-1.7V12.1c0-0.4,0-0.7,0.2-1c0.2-0.5,0.5-1,1.2-1c0.3,0,0.6,0.1,0.8,0.3c0.4,0.5,0.5,1,0.5,1.7V28.5z
	 M92.6,34.2h3.6V6.4h-3.7v15.7h-0.2l-0.3-1.3L88,6.4h-3.6v27.8h3.7V18.5h0.2l0.3,1.3L92.6,34.2z M107.1,34.2l0.8-5.7h3.9l0.8,5.7h4
	l-4.2-27.8h-5l-4.2,27.8H107.1z M111.2,24.2h-2.8l1.2-8.8l0.1-0.7h0.2l0.1,0.7L111.2,24.2z M125,10.6v23.6h4.1V10.6h3.9V6.4h-11.8
	v4.2H125z M139.5,34.2h9.3V30h-5.2v-7.6h3.8v-4.5h-3.8v-7.3h5.2V6.4h-9.3V34.2z"/>
</svg>
