<svg xmlns="http://www.w3.org/2000/svg" xmlns:xlink="http://www.w3.org/1999/xlink" version="1.1" id="Livello_1" x="0px" y="0px" width="100px" height="57.622px" viewBox="-0.029 19.72 100 57.622" enable-background="new -0.029 19.72 100 57.622" xml:space="preserve">
<g id="bike">
	<g>
		<path d="M83.729,38.807c-3.446-0.562-6.852-0.153-9.939,1.021c-1.264-2.867-2.528-5.735-3.793-8.602    c-1.477-3.348-2.953-6.696-4.429-10.044c-0.755-1.71-2.565-1.447-4.12-1.447c-2.245,0-4.488,0-6.732,0    c-1.949,0-1.966,3.018-0.022,3.018c2.515,0,5.028,0,7.542,0c0.249,0,0.499,0,0.749,0c0.133,0.303,0.267,0.606,0.4,0.909    c0.945,2.144,1.891,4.288,2.836,6.432c-9.377,0-18.754,0-28.131,0c-1.917,0-3.833,0-5.75,0c-0.049,0-0.092,0.01-0.139,0.014    c-0.032,0.003-0.064,0.004-0.097,0.01c-0.226,0.031-0.42,0.105-0.583,0.212c-0.02,0.012-0.04,0.022-0.059,0.035    c-0.016,0.011-0.03,0.025-0.045,0.037c-0.164,0.119-0.305,0.266-0.394,0.447c-1.488,3.031-2.976,6.062-4.464,9.094    c-1.271-0.511-2.603-0.907-3.998-1.134c-9.413-1.536-18.547,4.114-21.61,13.087c-3.051,8.939,1.286,19.025,9.581,23.326    c4.178,2.165,9.064,2.656,13.621,1.552c4.454-1.081,8.283-3.852,10.995-7.496c2.11-2.835,3.304-6.304,3.589-9.816    c3.583,0,7.166,0,10.749,0c1.361,0,2.724,0,4.085,0c0.129,0,0.248-0.015,0.36-0.039c0.63,0.135,1.375-0.148,1.674-0.716    c4.214-8.008,8.427-16.016,12.641-24.023c0.437,0.988,0.872,1.976,1.308,2.964c0.51,1.156,1.02,2.312,1.529,3.467    c-4.092,2.322-7.36,6.09-8.961,10.781c-3.052,8.939,1.284,19.025,9.579,23.326c4.179,2.165,9.065,2.656,13.621,1.552    c4.453-1.081,8.283-3.852,10.995-7.496c2.409-3.237,3.625-7.302,3.656-11.314C99.899,48.583,93.041,40.325,83.729,38.807z     M19.121,74.339c-9.12-0.069-16.32-7.958-16.112-16.94c0.206-8.89,7.892-15.906,16.654-15.838c1.96,0.015,3.829,0.412,5.564,1.087    c-2.289,4.663-4.578,9.325-6.867,13.987c-0.092,0.187-0.183,0.374-0.275,0.561c-0.488,0.993,0.101,2.264,1.295,2.264    c5.438,0,10.876,0,16.314,0C34.857,67.85,27.711,74.406,19.121,74.339z M27.918,43.998c4.269,2.668,7.257,7.26,7.779,12.444    c-4.07,0-8.139,0-12.209,0c-0.56,0-1.12,0-1.679,0C23.845,52.293,25.881,48.146,27.918,43.998z M38.722,56.441    c-0.547-6.329-4.165-11.982-9.467-15.167c1.134-2.311,2.269-4.621,3.403-6.932c5.961,7.149,11.922,14.299,17.883,21.448    c0.181,0.217,0.361,0.434,0.543,0.65C46.963,56.441,42.842,56.441,38.722,56.441z M54.008,55.26    c-5.975-7.167-11.95-14.333-17.925-21.5c-0.181-0.217-0.361-0.433-0.542-0.649c8.953,0,17.906,0,26.859,0c1.088,0,2.176,0,3.263,0    C61.778,40.493,57.894,47.876,54.008,55.26z M80.291,74.339c-9.119-0.069-16.32-7.958-16.112-16.94    c0.133-5.775,3.434-10.745,8.125-13.51c2.349,5.325,4.696,10.65,7.045,15.974c0.333,0.753,1.418,0.916,2.064,0.538    c0.771-0.452,0.868-1.314,0.537-2.066c-2.312-5.245-4.626-10.489-6.938-15.734c1.832-0.678,3.795-1.055,5.821-1.04    c8.88,0.068,16.053,7.605,16.12,16.379C96.883,67.045,89.394,74.41,80.291,74.339z"/>
		<path d="M30.912,28.174c2.257-0.02,7.209-0.041,7.601-3.088c0.104-0.813-0.75-1.52-1.498-1.52c-4.054,0-8.108,0-12.162,0    c-0.737,0-1.625,0.677-1.52,1.498C23.726,28.126,28.63,28.154,30.912,28.174z"/>
	</g>
	<g id="beers_1_">
	</g>
	<polygon display="none" fill="none" points="0.246,19.974 99.696,19.974 99.696,77.088 0.246,77.088  "/>
</g>
</svg>