<?xml version="1.0" encoding="utf-8"?>
<!-- Generator: Adobe Illustrator 17.0.0, SVG Export Plug-In . SVG Version: 6.00 Build 0)  -->
<!DOCTYPE svg PUBLIC "-//W3C//DTD SVG 1.1//EN" "http://www.w3.org/Graphics/SVG/1.1/DTD/svg11.dtd">
<svg version="1.1" id="Layer_1" xmlns="http://www.w3.org/2000/svg" xmlns:xlink="http://www.w3.org/1999/xlink" x="0px" y="0px"
	 width="92.6px" height="51.6px" viewBox="0 0 92.6 51.6" style="enable-background:new 0 0 92.6 51.6;" xml:space="preserve">
<path style="fill:#222222;" d="M53.6,0c2.9,0,5.8,0,8.6,0c0.7,0.2,1.1,0.6,1.4,1.3c0.5,1.2,1.1,2.5,1.6,3.7
	c1.7,4.1,3.3,8.1,4.9,12.2c0.2,0.6,0.6,0.8,1.2,0.7c1.3-0.1,2.6-0.1,3.8-0.1c1.6-0.1,3.2,0.1,4.8,0.5c6.8,1.8,14.2,9.3,12.2,19.6
	c-1.1,5.4-4.3,9.2-9,11.8c-1.7,0.9-3.6,1.4-5.5,1.8c-1.3,0-2.6,0-3.9,0c-0.1,0-0.3-0.1-0.4-0.1C62.3,50.1,56,37.9,59.6,29
	c1.5-3.6,3.8-6.5,7-8.7c0.6-0.4,0.6-0.9,0.5-1.5c-0.4-1.8-1.2-3.4-2-5c-0.2-0.5-0.5-0.4-0.8-0.1c-0.5,0.6-1.1,1.3-1.7,1.9
	C57.4,22.4,52.2,29,46.9,35.6c-0.4,0.4-0.5,0.9-0.5,1.5c0,2,0,4.1-0.1,6.1c0,0.3,0.1,0.8-0.3,1c-1.1,0.3-2.3,0.6-3.5,0.1
	c-0.3-0.1-0.5-0.4-0.5-0.8c0-0.4,0.3-0.6,0.7-0.6c0.4-0.1,0.7-0.1,1.1-0.1c0.5,0,0.7-0.2,0.7-0.7c0-1.6,0.2-3.3,0-4.9
	c-0.1-0.6-0.3-0.8-0.8-0.8c-3,0-6,0.1-9,0.1c-0.6,0-0.9,0.3-0.9,0.9c-0.1,0.7-0.2,1.3-0.4,2c-0.9,3.5-3.3,5.9-5.8,8.3
	c-2,1.9-4.4,2.9-7,3.6c-0.8,0.2-1.7,0.3-2.6,0.4c-1.2,0-2.4,0-3.5,0c-0.3-0.1-0.6-0.2-1-0.3c-5-1.2-8.8-4-11.4-8.5
	C1,41,0.4,39,0,36.8c0-1.5,0-3,0-4.5c0.1-0.2,0.1-0.5,0.2-0.7c0.9-4.2,2.9-7.8,6.5-10.3c1.9-1.4,3.9-2.6,6.3-3
	c3.4-0.7,6.8-0.4,10.1,0.5c0.6,0.2,1,0.1,1.3-0.4c1.8-2.8,3.6-5.6,5.5-8.4c0.3-0.4,0.3-0.8,0-1.3c-0.4-0.7-0.8-1.5-1.2-2.3
	c-0.3-0.6-0.7-0.8-1.4-0.7c-1.5,0.2-1.8-0.2-1.8-1.7c0-0.2,0-0.3,0-0.5c0-1,0.2-1.2,1.2-1.3c3.1-0.2,6.3-0.2,9.4,0
	c0.8,0,1.6,0,2.4,0.2c0.4,0.1,0.7,0.3,0.8,0.7c0.1,0.5-0.3,0.7-0.6,0.8c-0.7,0.3-1.4,0.5-2.1,0.6c-1.4,0.2-2.8,0.4-4.3,0.6
	c-0.3,0-0.8,0-0.7,0.4c0.2,0.7,0.5,1.4,0.9,2C32.8,8.2,33.3,8,33.8,8c8.5,0,16.9,0,25.4,0c0.9,0,1.9-0.1,2.8-0.1
	c0.5,0,0.7-0.3,0.5-0.7c-0.3-0.7-0.6-1.4-0.8-2.1c-0.4-1.2-1.1-1.6-2.3-1.6c-1.7,0-3.5-0.1-5.2-0.2c-1-0.1-2-0.9-2-1.6
	C52.1,0.9,52.6,0.4,53.6,0z M89.4,35.1c0-0.3,0-0.5,0-0.8c0.3-6-6.4-13-11.7-13c-1.4,0-2.9-0.3-4.3-0.2c-1,0.1-1.2,0.3-0.8,1.3
	c0.3,1,0.7,2,1,3c0.9,2.6,2.1,5,3,7.6c0.3,0.7,0.4,1.5,0.2,2.3c-0.2,0.5-0.4,0.9-1,1c-0.5,0.1-0.9-0.2-1.2-0.5
	c-0.6-0.6-0.9-1.4-1.2-2.2c-1.3-3.1-2.5-6.1-3.8-9.2c-0.5-1.3-1.1-1.4-2.1-0.6c-4,3.3-5.8,7.5-5.3,12.7c0.7,7.3,8.3,13,15.6,11.7
	c4.5-0.8,7.7-3.5,10.1-7.3C88.9,39.1,89.6,37.2,89.4,35.1z M23.3,36.4c0,0,0,0.1,0,0.1c-1.9,0-3.9,0-5.8,0c-0.7,0-1.3,0-2-0.2
	c-0.8-0.2-1-0.7-0.7-1.4c0.2-0.5,0.4-1,0.7-1.5c0.7-1.2,1.4-2.3,2.2-3.5c1.4-2.1,2.7-4.2,4.1-6.4c0.5-0.8,0.5-0.9-0.5-1.2
	c-0.5-0.1-1.1-0.3-1.7-0.4c-4.1-0.7-8,0-11.4,2.6c-3.9,3-5.3,7-4.6,11.9c0.7,4.7,3.3,8.1,7.6,10c4.3,1.9,8.6,1.3,12.7-0.7
	c3.5-1.7,5.5-4.5,6.1-8.3c0.1-0.9,0.1-1-0.9-1C27.3,36.4,25.3,36.4,23.3,36.4z M44.6,30.5c0.1,0,0.1,0,0.2-0.1
	c0-0.4-0.1-0.9-0.1-1.3c0-1.2-0.1-2.4-0.1-3.5c0-0.3,0-0.7,0.4-0.7c1-0.1,2.1-0.2,3.1,0.1c0.3,0.1,0.5,0.3,0.5,0.7
	c0,0.3-0.2,0.6-0.4,0.8c-0.4,0.2-0.9,0.2-1.3,0.3c-0.3,0.1-0.6,0.1-0.6,0.5c-0.1,1.1,0,2.1,0.1,3.3c0.3-0.3,0.5-0.5,0.6-0.7
	c2.9-3.5,5.7-7,8.5-10.6c1.7-2.2,3.5-4.4,5.1-6.7c0.5-0.7,0.3-0.9-0.5-1c-1.4-0.1-2.8-0.2-4.2-0.2c-6.6,0-13.2,0-19.9,0
	c-1,0-1.1,0.1-0.6,1c2.1,4.1,4.2,8.2,6.3,12.4C42.7,26.7,43.7,28.6,44.6,30.5z M38,32.6C38,32.6,38,32.7,38,32.6c1.1,0,2.3,0,3.4,0
	c0.9,0,1-0.1,0.6-1c-1.6-3-3.2-6-4.9-9c-1.6-2.9-3.2-5.8-4.9-8.5c-0.5-0.8-0.6-0.7-1.1,0c-1.2,2-2.4,4-3.6,5.9
	c-0.4,0.6-0.3,0.9,0.1,1.4c2.8,3.1,5.1,6.4,6.1,10.6c0.1,0.5,0.4,0.6,0.9,0.6C35.7,32.6,36.9,32.6,38,32.6z M25,32.8
	c0,0,0-0.1,0-0.1c1.4,0,2.8,0,4.2,0c0.7,0,0.9-0.2,0.8-0.9c-0.4-3-2.1-5.3-4.2-7.2c-0.4-0.3-0.6-0.2-0.8,0.2c-1.6,2.5-3.1,5-4.7,7.4
	c-0.3,0.5-0.2,0.7,0.4,0.7C22.2,32.8,23.6,32.8,25,32.8z"/>
</svg>
