<?xml version="1.0" encoding="utf-8"?>
<!-- Generator: Adobe Illustrator 17.0.0, SVG Export Plug-In . SVG Version: 6.00 Build 0)  -->
<!DOCTYPE svg PUBLIC "-//W3C//DTD SVG 1.1//EN" "http://www.w3.org/Graphics/SVG/1.1/DTD/svg11.dtd">
<svg version="1.1" id="Layer_1" xmlns="http://www.w3.org/2000/svg" xmlns:xlink="http://www.w3.org/1999/xlink" x="0px" y="0px"
	 width="32px" height="30.7px" viewBox="0 0.8 32 30.7" style="enable-background:new 0 0.8 32 30.7;" xml:space="preserve">
<g>
	<path style="fill:#FFFFF0;" d="M13.8,14.8C13.8,14.8,13.8,14.8,13.8,14.8L13.8,14.8C13.8,14.8,13.8,14.8,13.8,14.8z"/>
	<path style="fill:#FFFFF0;" d="M13.8,14.8C13.8,14.7,13.8,14.7,13.8,14.8C13.8,14.7,13.8,14.7,13.8,14.8z"/>
	<polygon style="fill:#FFFFF0;" points="26,14.8 26,14.8 26,14.8 	"/>
	<path style="fill:#FFFFF0;" d="M26,14.8C26,14.8,26,14.8,26,14.8L26,14.8z"/>
	<path style="fill:#FFFFF0;" d="M29.5,5.4c-2.7-3.2-10.2-5.5-16.6-3.7C6.2,3.6,2.8,7.8,2.4,15.3c0,0.6-0.2,1.1-0.4,1.6l-1.7,3.5
		c-0.1,0.3-0.1,0.6,0,0.9c0.1,0.3,0.4,0.5,0.6,0.6L1.4,22c0.5,0.2,0.8,0.6,0.8,1.1c-0.1,6.7,0.2,8.4,7.2,8.4c7.5,0,6.5-5.5,15.6-6.6
		C31.8,24.1,34.1,10.9,29.5,5.4z M27.7,14c0,0.4-0.3,0.7-0.8,0.7H26c0,0,0,0,0,0c-0.2,0.6-0.4,1.2-0.7,1.7l0.6,0.6
		c0.3,0.3,0.3,0.8,0,1.1l-1.1,1.1c-0.3,0.3-0.8,0.3-1.1,0l-0.6-0.6c-0.5,0.3-1.1,0.5-1.7,0.7c0,0,0,0.4,0,0.9c0,0.4-0.3,0.8-0.8,0.8
		h-1.6c-0.2,0-0.4-0.1-0.5-0.2c-0.1-0.1-0.2-0.3-0.2-0.5l0-0.8c-0.6-0.2-1.2-0.4-1.7-0.7l-0.6,0.6c-0.1,0.1-0.3,0.2-0.5,0.2
		s-0.4-0.1-0.5-0.2l-1.1-1.1c-0.1-0.1-0.2-0.3-0.2-0.5s0.1-0.4,0.2-0.5l0.6-0.6c-0.3-0.5-0.6-1.1-0.7-1.7c0,0,0,0,0,0h-0.8
		c-0.4,0-0.8-0.3-0.8-0.7v-1.6c0-0.4,0.3-0.8,0.8-0.8h0.8c0,0,0,0,0,0c0.1-0.6,0.4-1.2,0.7-1.7l-0.6-0.6c-0.3-0.3-0.3-0.8,0-1.1
		L15,7.2C15.1,7.1,15.3,7,15.5,7s0.4,0.1,0.5,0.2l0.6,0.6c0.5-0.3,1.1-0.6,1.7-0.7l0-0.8c0-0.2,0.1-0.4,0.2-0.5
		c0.1-0.1,0.3-0.2,0.5-0.2h1.6c0.4,0,0.8,0.3,0.8,0.8c0,0.4,0,0.9,0,0.9c0.6,0.2,1.2,0.4,1.7,0.7l0.6-0.6C23.9,7.1,24.1,7,24.3,7
		s0.4,0.1,0.5,0.2l1.1,1.1c0.3,0.3,0.3,0.8,0,1.1L25.3,10c0.3,0.5,0.5,1.1,0.7,1.7c0,0,0,0,0,0h0.9c0.4,0,0.8,0.3,0.8,0.7L27.7,14
		C27.7,14,27.7,14,27.7,14z"/>
	<circle style="fill:#FFFFF0;" cx="19.9" cy="13.3" r="2.2"/>
</g>
</svg>
