<?xml version="1.0" encoding="utf-8"?>
<!-- Generator: Adobe Illustrator 17.0.0, SVG Export Plug-In . SVG Version: 6.00 Build 0)  -->
<!DOCTYPE svg PUBLIC "-//W3C//DTD SVG 1.1//EN" "http://www.w3.org/Graphics/SVG/1.1/DTD/svg11.dtd">
<svg version="1.1" id="svg-sprites--above-the-fold"
	 xmlns="http://www.w3.org/2000/svg" xmlns:xlink="http://www.w3.org/1999/xlink" x="0px" y="0px" width="1100px" height="100px"
	 viewBox="0.5 100.5 1100 100" xml:space="preserve">
<g id="wrench">
	<path style="fill:#2D2D2D;" d="M7.4,142.9c0,0,5.9-12.3,10.2-19c12.9-0.7,23.7-2.8,24.9-1.8c-0.1,11.4-7.8,11.8-11.3,12.4
		s-4.1,2.2-4.1,2.2l-2.6,6.4l1.9,1.2l2-2.9L58.3,166L52,178.2l0.2,12L16,190.1l0.6-17.5"/>
	<path style="fill:#2D2D2D;" d="M72,142.1c0,0-5.2,12.4-9.6,15.7c-4.5,3.3-9-2.8-7.7-4.7c1.4-1.9,9.5-15.5,9.5-15.5
		S70.6,132.7,72,142.1z"/>
	<path style="fill:#2D2D2D;" d="M63.7,133.4c0,0-8.1,15.5-10.6,17.9c-2.5,2.3-9.5-2.1-7.3-6.2s11-19.5,11-19.5s6.6-3.4,7.5,5.3
		C64.1,132.1,63.7,133.4,63.7,133.4z"/>
	<path style="fill:#2D2D2D;" d="M48.8,117.8c0,0,1.5-3.6,5.6-2c4.1,1.5,2.5,5.4,1.6,6.9c-0.7,1.6-9.3,17.9-10.6,19.6
		c-1.4,1.8-3.9,2.1-5.4,1.2c-1.4-1.1-4.3-3.4-2.7-5.9C38.9,135.3,48.8,117.8,48.8,117.8z"/>
	<path style="fill:#2D2D2D;" d="M34,120.9l8.9-0.8c0,0,0.7,0,0.7,0.8c0,0.8,0.7,2,0.7,2l4.3-7.4c0,0,1.2-4.2-1.5-6.1
		s-4.9-1.8-6.6,0.8C38.6,112.8,34,120.9,34,120.9z"/>
	<path style="fill:#2D2D2D;" d="M28.8,121.2l-17.9-13.1c0,0-4.9-2.5-8,2.9s-0.4,7.3,3.4,10.6c3.8,3.3,7,5.4,7,5.4s2.6-5.2,4.2-5.4"
		/>
	<path style="fill:#2D2D2D;" d="M28.5,138.8L66,169.2c0,0,2.8-9.7,8.9-13.4c-3.3-2.8-5.3-4.7-5.3-4.7s-5.2,7.4-7.7,9.6
		c-2.6,2.2-10.4-4.7-8.7-6.9c-2.8,1.2-12-5-9.7-8.2c-0.6,1.5-9-1.5-8.9-6.8c3.6-4.6,2.2-3.5,2.2-3.5s-4.9,0.8-6,1.1
		C29.8,136.6,28.3,137.3,28.5,138.8z"/>
	<path style="fill:#2D2D2D;" d="M100,176c0,0,2.8-10.9-6.6-18.1c-9.4-7.2-18-0.7-22.1,3.8c-4,4.5-5.5,15.1,0.8,22.5
		c6.3,7.4,18.1,6.9,20.2,3.9c-5.7-4.3-14.1-10.6-14.1-10.6s-3.5-4.7,0.4-9.6c3.8-4.7,8-2.3,8-2.3"/>
</g>
<g id="facebook">
	<path style="fill:#FFFEF1;" d="M300.5,100.5v98.4h98.2v-98.4H300.5z M363,149.7h-8.7c0,13.8,0,30.6,0,30.6h-12.9c0,0,0-16.6,0-30.6
		h-6.1v-10.9h6.1v-7.1c0-4.9,2.4-12.8,12.8-12.8h9.3v10.5c0,0-5.5,0-6.9,0c-1.2,0-2.8,0.6-2.8,3v6.3h9.9L363,149.7z"/>
</g>
<g id="twitter">
	<path style="fill:#FFFEF1;" d="M200.5,100.5v98.4h98.2v-98.4H200.5z M263.5,180.3c-2.2,0-14-0.2-17.2-0.2c-3,0-19-4.9-19-22.3
		c0-3.2,0-6.1,0-9.3c0-3,0-5.9,0-8.7c0-0.6,0-1.8,0-2.4c0-4.3-0.6-9.3,1-13.4c1-3.2,3.8-4.3,6.9-4.3c7.7,0,8.1,7.9,8.1,15.6h22.2
		c3.4,0,6.1,3.4,6.1,9.1c0,5.5-5.5,6.7-8.7,6.7h-20c0,3.2-0.2,6.1-0.2,7.7c0,3.4,1.2,7.1,9.9,7.1h11.7c3,0,7.3,2.2,7.3,8.7
		C272,179.9,265.9,180.3,263.5,180.3z"/>
</g>
<g id="instagram">
	<g>
		<path style="fill:#FFFEF1;" d="M149.5,160.6c5.9,0,10.9-4.9,10.9-10.9c0-2.4-0.6-4.3-2-6.3c-2-2.8-5.1-4.3-8.9-4.3
			s-6.9,1.8-8.9,4.3c-1.2,1.8-2,4-2,6.3C138.8,155.6,143.8,160.6,149.5,160.6z"/>
		<polygon style="fill:#FFFEF1;" points="173.2,136.5 173.2,127.4 173.2,126 172,126 163,126 163,136.5 		"/>
		<path style="fill:#FFFEF1;" d="M166.3,149.7c0,9.3-7.7,16.6-16.6,16.6c-9.3,0-16.6-7.7-16.6-16.6c0-2.2,0.6-4.3,1.2-6.3h-9.1v25.1
			c0,3.2,2.8,5.9,5.9,5.9h37.5c3.2,0,5.9-2.8,5.9-5.9v-25.1h-9C166.1,145.4,166.3,147.5,166.3,149.7z"/>
		<path style="fill:#FFFEF1;" d="M100.5,100.5v98.4h98.2v-98.4H100.5z M180.3,143.4v25.1c0,6.7-5.5,11.7-11.7,11.7h-37.7
			c-6.7,0-11.7-5.5-11.7-11.7v-25.1v-12.7c0-6.7,5.5-11.7,11.7-11.7h37.6c6.7,0,11.7,5.5,11.7,11.7L180.3,143.4L180.3,143.4z"/>
	</g>
</g>
<g id="mail">
	<path style="fill:#2D2D2D;" d="M450.7,103.5l-48.2,36v57.2h96.4v-57.2L450.7,103.5z M437.4,129.2c1.4-2.6,3.4-4.5,5.8-5.8
		c2.5-1.3,5.3-2,8.5-2c2.7,0,5.1,0.5,7.2,1.6c2.1,1.1,3.7,2.5,4.8,4.5c1.1,1.9,1.7,4,1.7,6.3c0,2.7-0.8,5.2-2.5,7.4
		c-2.1,2.8-4.8,4.2-8.1,4.2c-0.9,0-1.5-0.1-2-0.5c-0.4-0.3-0.8-0.8-0.9-1.4c-1.2,1.2-2.7,1.8-4.3,1.8c-1.8,0-3.2-0.6-4.4-1.8
		c-1.2-1.2-1.8-2.9-1.8-4.9c0-2.5,0.7-4.8,2.1-6.9c1.7-2.5,3.9-3.8,6.6-3.8c1.9,0,3.3,0.7,4.2,2.2l0.4-1.8h4.2l-2.4,11.5
		c-0.2,0.7-0.2,1.2-0.2,1.4c0,0.3,0.1,0.5,0.2,0.6c0.1,0.1,0.3,0.2,0.4,0.2c0.5,0,1.2-0.3,2-0.9c1.1-0.8,2-1.9,2.6-3.3
		c0.7-1.4,1-2.8,1-4.3c0-2.6-0.9-4.8-2.8-6.6c-1.9-1.8-4.6-2.6-8-2.6c-2.9,0-5.4,0.6-7.4,1.8c-2,1.2-3.5,2.8-4.6,5
		c-1,2.1-1.5,4.4-1.5,6.7c0,2.2,0.6,4.3,1.7,6.1c1.1,1.9,2.7,3.2,4.8,4.1c2.1,0.8,4.4,1.3,7.1,1.3c2.5,0,4.7-0.4,6.6-1.1
		c1.8-0.7,3.3-1.8,4.4-3.2h3.4c-1.1,2.2-2.7,3.9-4.9,5.1c-2.5,1.4-5.6,2.1-9.3,2.1c-3.5,0-6.6-0.6-9.1-1.8c-2.6-1.2-4.5-2.9-5.7-5.3
		c-1.2-2.3-1.9-4.9-1.9-7.6C435.2,134.6,435.9,131.8,437.4,129.2z M405.9,140.6l35.6,23.8L405.9,192V140.6z M408.6,193.8l42.1-32.6
		l42.1,32.6H408.6z M495.5,192l-35.6-27.5l35.6-23.8C495.5,140.6,495.5,192,495.5,192z M452.4,131.8c0.6,0.6,0.8,1.6,0.8,2.8
		c0,1.1-0.2,2.2-0.6,3.5c-0.4,1.3-0.9,2.2-1.5,2.9c-0.4,0.5-0.8,0.8-1.2,1c-0.5,0.3-1.1,0.4-1.7,0.4c-0.8,0-1.5-0.3-2-1
		c-0.5-0.6-0.8-1.6-0.8-3c0-1,0.2-2.2,0.6-3.5c0.4-1.3,1-2.3,1.8-3c0.8-0.7,1.6-1.1,2.5-1.1C451.2,130.8,451.9,131.1,452.4,131.8z"
		/>
</g>
<g id="brain">
	<path style="fill:#2D2D2D;" d="M528.4,134.7c-1.6,0.4-2.4,2-2,3.4c0.4,1.6,2,2.4,3.4,2.2c1.6-0.4,2.4-2,2-3.4
		C531.2,135.3,529.8,134.3,528.4,134.7z"/>
	<path style="fill:#2D2D2D;" d="M553.9,122.8c-3.4,0-5.9,2.6-5.9,5.7c0,3.1,2.8,5.7,5.9,5.7c3.4,0,5.9-2.6,5.9-5.7
		C559.7,125.4,557,122.8,553.9,122.8z"/>
	<path style="fill:#2D2D2D;" d="M568.2,104.7l-1-0.3L566,104l-1.4-0.3l-1.4-0.4l-1.4-0.4l-1.4-0.4l-1.6-0.4l-1.4-0.2l-1.5-0.2
		l-1.6-0.2H553h-1.6H550h-1.6h-1.6h-1.4l-1.4,0.2l-1.4,0.2l-1.6,0.2l-1.6,0.4l-1.6,0.2l-1.5,0.4l-1.6,0.4l-1.6,0.4l-1.6,0.4
		l-1.4,0.6l-1.4,0.6l-1.4,0.6l-1.4,0.6l-1.4,0.8l-1.4,0.8l-1.4,0.8l-1.2,1l-1.2,1l-1.2,1l-1,1l-1,1l-1,1.2l-1,1.2l-1,1.2l-0.5,1
		l-0.8,1.4l-0.8,1.4l-0.6,1.4l-0.6,1.4l-0.6,1.4l-0.4,1.4l-0.4,1.4l-0.4,1.2l-0.2,1.4l-0.4,3l-0.2,3v3l0.2,3l0.4,3l0.8,2.6l1,2.8
		l7.1,11.7c12.2,12.6,11.6,25.1,11.6,25.1v2.6v7.7h42.2l0.2-0.8v-2.4V193l0.2-5.5l0.2-2.8l0.2-0.6l0.2-0.6l0.2-0.4l0.4-0.4l0.4-0.2
		l0.6-0.2l0.6-0.2l0.6-0.2h0.8h0.8h0.2h0.8h0.8l1.2,0.4l1,0.2h1h1h0.6l0.6-0.2l0.6-0.2l0.6-0.2l0.6-0.4l0.4-0.4l0.4-0.4l0.4-0.4
		l0.2-1l-0.4-1.1l-0.2-1.2v-1.2l0.2-0.4l0.2-0.4l0.2-0.4l0.2-0.4l0.2-0.4l0.2-0.4l0.2-0.4v-0.4V172v-0.4l-0.2-0.4l-0.2-0.4l-0.4-0.4
		l-0.4-0.3l-0.4-0.4l-0.6-0.4l0.6-0.2l0.6-0.4l0.6-0.4l0.4-0.4l0.4-0.4l0.2-0.4l0.2-0.4l-0.2-0.4l-0.6-1.8l-0.4-1.6l-0.2-1.4v-1.4
		l0.8-0.4l0.8-0.4l1.6-0.4l1.6-0.4l0.4-0.4l0.2-0.4l0.2-0.4l0.3-1.5l-0.6-2l-1.3-2.2l-1.1-1.6l-0.6-1.8l-0.8-1.8l-0.6-1.8l-0.9-2.1
		l-1-1.3v-0.8l0.4-0.8l0.4-0.8V138l-0.4-1.5l-0.4-1.6l-0.4-1.6l-0.4-1.6l-0.6-1.6c0,0-0.9-10.2-4.2-15.4S568.2,104.7,568.2,104.7z
		 M535.6,137.8l-0.2,1.2c0,0,1.6,2,1.6,2.2l-1,1.6c0,0.2-2.6-0.4-2.6-0.4l-1,0.8l-0.4,2.5l-1.8,0.4c-0.2,0-1.6-2.2-1.6-2.2l-1.2-0.2
		c0,0-2,1.6-2.2,1.6l-1.6-1c-0.2,0,0.4-2.6,0.4-2.6l-0.6-1l-2.6-0.4l-0.4-2c0-0.2,2-1.6,2-1.6l0.2-1.2l-1.6-2.2l1-1.6
		c0-0.2,2.6,0.4,2.6,0.4l1-0.6l0.4-2.6l1.8-0.4c0.2,0,1.6,2.2,1.6,2.2l1.2,0.2c0,0,2-1.6,2.2-1.6l1.6,1c0.2,0-0.4,2.6-0.4,2.6l0.6,1
		l2.6,0.4l0.4,2L535.6,137.8z M572.2,130.7c0,0.2-5.1,2.2-5.1,2.2l-1,2.2c0,0,2.2,4.9,2,5.1l-3,2.8c-0.2,0.2-5.1-2-5.1-2l-2.4,1
		c0,0-2,4.9-2.4,4.9h-4.1c-0.2,0-2.2-4.9-2.2-4.9l-2.4-1c0,0-4.9,2.2-5.1,2l-3-2.8c-0.2-0.2,2.2-4.9,2.2-4.9l-1-2.2
		c0,0-5.1-2-5.1-2.2v-4c0-0.2,5.1-2.2,5.1-2.2l1-2.2c0,0-2.2-4.9-2-5.1l3-2.8c0.2-0.2,5.1,2,5.1,2l2.2-1c0,0,2-4.9,2.4-4.9h4.2
		c0.2,0,2.2,4.9,2.2,4.9l2.2,1c0,0,4.9-2.2,5.1-2l3,2.8c0.2,0.2-2.2,4.9-2.2,4.9l1,2.2c0,0,5.1,2,5.1,2.2v4
		C571.9,130.7,572.2,130.7,572.2,130.7z"/>
</g>
<g id="child">
	<circle style="fill:#FFFEF1;" cx="642.5" cy="114.8" r="10.3"/>
	<path style="fill:#FFFEF1;" d="M614.7,147.8c-1.6,1.8-1.6,4.6,0.2,6.2c0.8,0.8,2,1.2,3,1.2c1.2,0,2.4-0.4,3.2-1.4l9.5-10.7v12.5
		l-1.2,36c-0.2,3,2,5.1,4.9,5.3h0.2c2.8,0,4.9-2.2,5.1-4.9l1-27.1h4l3.5,27.4c0.2,2.6,2.4,4.3,5.1,4.3c0.2,0,0.4,0,0.6,0
		c2.8-0.4,4.7-3,4.3-5.7l-5.1-38.3l-0.2-15.6l11.3-5.2c1.2-0.6,2.2-1.6,2.4-3l4.5-17.6c0.6-2.4-0.8-4.7-3.2-5.5
		c-2.4-0.8-4.7,0.8-5.5,3.2l-4,15.6l-9.1,4.2h-15.7c-0.2,0-0.4,0-0.6,0.2c-0.8,0.2-1.8,0.6-2.4,1.2L614.7,147.8z"/>
</g>
<g id="lock">
	<path style="fill:#FFFEF1;" d="M779.4,150.2c1.6,0,3,0.6,4.2,1.6c1.2,1,1.6,2.4,1.6,4.2v34.8c0,1.6-0.6,3-1.6,4.2s-2.4,1.6-4.2,1.6
		h-58.1c-1.6,0-3-0.6-4.2-1.6c-1.2-1.2-1.6-2.4-1.6-4.2v-34.9c0-1.6,0.6-3,1.6-4.2c1.2-1.2,2.4-1.6,4.2-1.6h2v-19.5
		c0-7.5,2.6-13.8,7.9-19.2s11.7-7.9,19.2-7.9s13.8,2.6,19.2,7.9c5.4,5.3,7.9,11.7,7.9,19.2c0,1.2-0.4,2-1.2,2.8
		c-0.8,0.8-1.6,1.2-2.8,1.2h-3.8c-1.2,0-2-0.4-2.8-1.2c-0.8-0.8-1.2-1.6-1.2-2.8c0-4.2-1.6-7.9-4.5-10.9c-3-3-6.7-4.5-10.9-4.5
		s-7.9,1.6-10.9,4.5c-3,3-4.5,6.7-4.5,10.9V150h44.5V150.2z"/>
</g>
<g id="trans">
	<path id="path5" style="fill:#FFFEF1;" d="M809.5,102.7v18.2h7.3v-5.5l5.5,5.5l-5.5,5.5l5.5,5.5l5.5-5.5l1.8,1.8
		c-3.6,4.5-5.7,10.3-5.7,16.4c0,13.2,9.7,24.3,22.5,26.3v9.5H836v8.1h10.5v9.5h8.1v-9.5h10.5v-8.1h-10.6v-9.5l0,0
		c12.6-2,22.5-13,22.5-26.3c0-6.1-2.2-11.9-5.7-16.4l12.6-12.6v11.7h7.3v-24.6h-24.4v7.3h11.7l-12.9,12.8c-4.3-3-9.5-4.9-15.2-4.9
		c-5.7,0-10.9,1.8-15.2,4.9l-2-2l5.5-5.5l-5.5-5.5l-5.5,5.5l-5.5-5.5h5.5v-7.3h-18.2V102.7z M850.4,125.2c10.5,0,19,8.7,19,19
		c0,10.5-8.7,19-19,19c-10.3,0-19-8.7-19-19S839.7,125.2,850.4,125.2L850.4,125.2z"/>
</g>
<g id="bicycle">
	<path style="fill:#2D2D2D;" d="M958.2,123.5c3,0,6.2,0,8.9,0c0.7,0.2,1.2,0.7,1.4,1.4c0.6,1.3,1.2,2.6,1.8,3.9
		c1.8,4.3,3.4,8.5,5.1,12.7c0.2,0.7,0.7,0.8,1.3,0.7c1.4-0.1,2.6-0.1,4.1-0.1c1.8-0.1,3.3,0.1,5.1,0.6c7.1,1.9,14.7,9.7,12.6,20.4
		c-1.2,5.5-4.5,9.6-9.4,12.2c-1.8,1-3.6,1.4-5.8,1.9c-1.4,0-2.6,0-4.1,0c-0.1,0-0.3-0.1-0.3-0.1c-11.5-1.4-18.1-14.1-14.3-23.4
		c1.7-3.6,4.1-6.8,7.3-9c0.7-0.3,0.7-1,0.6-1.7c-0.3-1.9-1.3-3.4-2.1-5.2c-0.2-0.6-0.6-0.3-0.8-0.1c-0.6,0.7-1.2,1.4-1.8,2
		c-5.4,7.2-10.9,14-16.4,20.8c-0.3,0.3-0.6,1-0.6,1.7c0,2.1,0,4.3-0.1,6.4c0,0.3,0.1,0.8-0.3,1.1c-1.2,0.3-2.4,0.7-3.6,0.1
		c-0.3-0.1-0.6-0.3-0.6-0.8c0-0.4,0.3-0.7,0.7-0.7c0.3-0.1,0.7-0.1,1.2-0.1c0.6,0,0.7-0.2,0.7-0.7c0-1.8,0.2-3.4,0-5.1
		c-0.1-0.7-0.3-0.8-0.8-0.8c-3.1,0-6.3,0.1-9.4,0.1c-0.7,0-1,0.3-1,1c-0.1,0.7-0.2,1.4-0.3,2.1c-1,3.6-3.4,6.2-6.2,8.7
		c-2.1,2-4.5,3-7.3,3.6c-0.8,0.2-1.8,0.3-2.6,0.3c-1.3,0-2.4,0-3.6,0c-0.3-0.1-0.7-0.2-1.1-0.3c-5.1-1.4-9.2-4.3-11.8-9
		c-1.2-2-1.8-4.1-2.2-6.4c0-1.7,0-3.1,0-4.7c0.1-0.2,0.1-0.6,0.2-0.7c1-4.4,3-8.1,6.8-10.8c2-1.4,4.1-2.6,6.6-3.1
		c3.4-0.7,7.2-0.3,10.6,0.6c0.7,0.2,1.1,0.1,1.4-0.3c1.9-3,3.6-5.8,5.8-8.8c0.3-0.3,0.3-0.8,0-1.4c-0.3-0.6-0.8-1.7-1.3-2.4
		c-0.3-0.7-0.7-0.8-1.4-0.7c-1.7,0.2-1.9-0.2-1.9-1.8c0-0.2,0-0.3,0-0.6c0-1.1,0.2-1.3,1.3-1.4c3.2-0.2,6.6-0.2,9.8,0
		c0.8,0,1.8,0,2.4,0.2c0.3,0.1,0.7,0.3,0.8,0.7c0.1,0.6-0.3,0.7-0.7,0.8c-0.7,0.3-1.4,0.6-2.2,0.7c-1.8,0.2-3.1,0.4-4.7,0.7
		c-0.3,0-0.8,0-0.7,0.3c0.2,0.7,0.6,1.4,1,2.1c0.3,0.7,0.8,0.6,1.4,0.6c8.9,0,17.5,0,26.6,0c1,0,2-0.1,3-0.1c0.6,0,0.7-0.3,0.6-0.7
		c-0.3-0.7-0.7-1.4-0.8-2.2c-0.3-1.3-1.2-1.8-2.4-1.8c-1.8,0-3.6-0.1-5.4-0.2c-1.1-0.1-2.1-1-2.1-1.8
		C956.7,124.3,957.1,123.9,958.2,123.5z M995.6,160.2c0-0.3,0-0.6,0-0.8c0.3-6.3-6.6-13.6-12.2-13.6c-1.4,0-3-0.3-4.5-0.2
		c-1.1,0.1-1.3,0.3-0.8,1.4c0.3,1.1,0.7,2.1,1.1,3.1c1,2.6,2.2,5.2,3.1,7.8c0.3,0.7,0.3,1.7,0.2,2.4c-0.2,0.6-0.3,1-1.1,1.1
		c-0.6,0.1-1-0.2-1.3-0.6c-0.7-0.7-1-1.4-1.3-2.3c-1.4-3.2-2.6-6.4-4.1-9.6c-0.6-1.4-1.2-1.4-2.2-0.7c-4.2,3.4-6.2,7.8-5.5,13.3
		c0.7,7.6,8.7,13.6,16.2,12.2c4.7-0.8,7.9-3.6,10.6-7.6C995,164.3,995.8,162.3,995.6,160.2z M926.7,161.4L926.7,161.4
		c-2,0.1-4.1,0.1-6.2,0.1c-0.7,0-1.4,0-2.1-0.2c-0.8-0.2-1.1-0.7-0.7-1.4c0.2-0.6,0.3-1.1,0.7-1.7c0.7-1.3,1.4-2.4,2.3-3.6
		c1.4-2.2,2.8-4.4,4.3-6.6c0.6-0.8,0.6-1-0.6-1.3c-0.6-0.1-1.2-0.3-1.8-0.3c-4.3-0.7-8.3,0-11.9,2.6c-4,3-5.4,7.2-4.7,12.3
		c0.8,5,3.5,8.6,7.9,10.6c4.5,2,8.9,1.4,13.3-0.7c3.6-1.8,5.8-4.7,6.4-8.7c0.1-1,0.1-1.1-1-1.1C930.8,161.4,928.7,161.4,926.7,161.4
		z M948.9,155.3c0.1,0,0.1,0,0.2-0.1c0-0.3-0.1-1-0.1-1.4c0-1.3-0.1-2.4-0.1-3.6c0-0.3,0-0.7,0.3-0.7c1.1-0.1,2.2-0.2,3.2,0.1
		c0.3,0.1,0.6,0.3,0.6,0.7c0,0.4-0.2,0.7-0.3,0.8c-0.3,0.2-1,0.2-1.4,0.3c-0.3,0.1-0.7,0.1-0.7,0.6c-0.1,1.2,0,2.2,0.1,3.4
		c0.3-0.3,0.6-0.6,0.7-0.7c3-3.6,6-7.3,8.9-11c1.8-2.3,3.6-4.5,5.3-6.9c0.6-0.7,0.3-1-0.6-1.1c-1.4-0.1-3-0.2-4.4-0.2
		c-6.8,0-13.8,0-20.7,0c-1.1,0-1.2,0.1-0.7,1.1c2.2,4.3,4.4,8.6,6.6,12.9C946.9,151.4,947.8,153.3,948.9,155.3z M942,157.5
		C942,157.5,942,157.6,942,157.5c1.2,0,2.4,0,3.4,0s1.1-0.1,0.7-1.1c-1.8-3.1-3.3-6.3-5.1-9.4c-1.8-3-3.3-6.2-5.1-8.9
		c-0.6-0.8-0.7-0.7-1.2,0c-1.3,2.1-2.4,4.2-3.6,6.2c-0.3,0.7-0.3,1,0.1,1.4c3,3.2,5.3,6.6,6.4,11c0.1,0.6,0.3,0.7,1,0.7
		C939.5,157.5,940.8,157.5,942,157.5z M928.4,157.8L928.4,157.8c1.4-0.1,3-0.1,4.4-0.1c0.7,0,1-0.2,0.8-1c-0.3-3.1-2.2-5.5-4.4-7.5
		c-0.3-0.3-0.7-0.2-0.8,0.2c-1.8,2.6-3.2,5.2-4.9,7.6c-0.3,0.6-0.2,0.7,0.3,0.7C925.5,157.8,926.9,157.8,928.4,157.8z"/>
</g>
<g id="wrench-inverted">
	<path style="fill:#FFFEF1;" d="M1006.4,144.9c0,0,5.9-12.3,10.2-19c12.9-0.7,23.7-2.8,24.9-1.8c-0.1,11.4-7.8,11.8-11.3,12.4
		c-3.5,0.6-4.1,2.2-4.1,2.2l-2.6,6.4l1.9,1.2l2-2.9l29.9,24.6l-6.3,12.2l0.2,12l-36.2-0.1l0.6-17.5"/>
	<path style="fill:#FFFEF1;" d="M1071,144.1c0,0-5.2,12.4-9.6,15.7c-4.5,3.3-9-2.8-7.7-4.7c1.4-1.9,9.5-15.5,9.5-15.5
		S1069.6,134.7,1071,144.1z"/>
	<path style="fill:#FFFEF1;" d="M1062.7,135.4c0,0-8.1,15.5-10.6,17.9c-2.5,2.3-9.5-2.1-7.3-6.2s11-19.5,11-19.5s6.6-3.4,7.5,5.3
		C1063.1,134.1,1062.7,135.4,1062.7,135.4z"/>
	<path style="fill:#FFFEF1;" d="M1047.8,119.8c0,0,1.5-3.6,5.6-2c4.1,1.5,2.5,5.4,1.6,6.9c-0.7,1.6-9.3,17.9-10.6,19.6
		c-1.4,1.8-3.9,2.1-5.4,1.2c-1.4-1.1-4.3-3.4-2.7-5.9C1037.9,137.3,1047.8,119.8,1047.8,119.8z"/>
	<path style="fill:#FFFEF1;" d="M1033,122.9l8.9-0.8c0,0,0.7,0,0.7,0.8c0,0.8,0.7,2,0.7,2l4.3-7.4c0,0,1.2-4.2-1.5-6.1
		c-2.7-1.9-4.9-1.8-6.6,0.8C1037.6,114.8,1033,122.9,1033,122.9z"/>
	<path style="fill:#FFFEF1;" d="M1027.8,123.2l-17.9-13.1c0,0-4.9-2.5-8,2.9c-3.1,5.4-0.4,7.3,3.4,10.6c3.8,3.3,7,5.4,7,5.4
		s2.6-5.2,4.2-5.4"/>
	<path style="fill:#FFFEF1;" d="M1027.5,140.8l37.5,30.4c0,0,2.8-9.7,8.9-13.4c-3.3-2.8-5.3-4.7-5.3-4.7s-5.2,7.4-7.7,9.6
		c-2.6,2.2-10.4-4.7-8.7-6.9c-2.8,1.2-12-5-9.7-8.2c-0.6,1.5-9-1.5-8.9-6.8c3.6-4.6,2.2-3.5,2.2-3.5s-4.9,0.8-6,1.1
		C1028.8,138.6,1027.3,139.3,1027.5,140.8z"/>
	<path style="fill:#FFFEF1;" d="M1099,178c0,0,2.8-10.9-6.6-18.1s-18-0.7-22.1,3.8c-4,4.5-5.5,15.1,0.8,22.5
		c6.3,7.4,18.1,6.9,20.2,3.9c-5.7-4.3-14.1-10.6-14.1-10.6s-3.5-4.7,0.4-9.6c3.8-4.7,8-2.3,8-2.3"/>
</g>
</svg>
