<?xml version="1.0" encoding="utf-8"?>
<!-- Generator: Adobe Illustrator 17.0.0, SVG Export Plug-In . SVG Version: 6.00 Build 0)  -->
<!DOCTYPE svg PUBLIC "-//W3C//DTD SVG 1.1//EN" "http://www.w3.org/Graphics/SVG/1.1/DTD/svg11.dtd">
<svg version="1.1" id="svg-sprites" xmlns="http://www.w3.org/2000/svg" xmlns:xlink="http://www.w3.org/1999/xlink" x="0px"
	 y="0px" width="100px" height="100px" viewBox="0 0 100 100" xml:space="preserve">
<g id="bicycle">
	<path style="fill:#222222;" d="M58.2,0c3,0,6.2,0,8.9,0c0.7,0.2,1.2,0.7,1.4,1.4c0.6,1.3,1.2,2.6,1.8,3.9c1.8,4.3,3.4,8.5,5.1,12.7
		c0.2,0.7,0.7,0.8,1.3,0.7c1.4-0.1,2.6-0.1,4.1-0.1c1.8-0.1,3.3,0.1,5.1,0.6c7.1,1.9,14.7,9.7,12.6,20.4c-1.2,5.5-4.5,9.6-9.4,12.2
		c-1.8,1-3.6,1.4-5.8,1.9c-1.4,0-2.6,0-4.1,0c-0.1,0-0.3-0.1-0.3-0.1c-11.5-1.4-18.1-14.1-14.3-23.4c1.7-3.6,4.1-6.8,7.3-9
		c0.7-0.3,0.7-1,0.6-1.7c-0.3-1.9-1.3-3.4-2.1-5.2c-0.2-0.6-0.6-0.3-0.8-0.1c-0.6,0.7-1.2,1.4-1.8,2c-5.4,7.2-10.9,14-16.4,20.8
		c-0.3,0.3-0.6,1-0.6,1.7c0,2.1,0,4.3-0.1,6.4c0,0.3,0.1,0.8-0.3,1.1c-1.2,0.3-2.4,0.7-3.6,0.1c-0.3-0.1-0.6-0.3-0.6-0.8
		c0-0.4,0.3-0.7,0.7-0.7c0.3-0.1,0.7-0.1,1.2-0.1c0.6,0,0.7-0.2,0.7-0.7c0-1.8,0.2-3.4,0-5.1c-0.1-0.7-0.3-0.8-0.8-0.8
		c-3.1,0-6.3,0.1-9.4,0.1c-0.7,0-1,0.3-1,1c-0.1,0.7-0.2,1.4-0.3,2.1c-1,3.6-3.4,6.2-6.2,8.7c-2.1,2-4.5,3-7.3,3.6
		c-0.8,0.2-1.8,0.3-2.6,0.3c-1.3,0-2.4,0-3.6,0c-0.3-0.1-0.7-0.2-1.1-0.3c-5.1-1.4-9.2-4.3-11.8-9c-1.2-2-1.8-4.1-2.2-6.4
		c0-1.7,0-3.1,0-4.7c0.1-0.2,0.1-0.6,0.2-0.7c1-4.4,3-8.1,6.8-10.8c2-1.4,4.1-2.6,6.6-3.1c3.4-0.7,7.2-0.3,10.6,0.6
		c0.7,0.2,1.1,0.1,1.4-0.3c1.9-3,3.6-5.8,5.8-8.8c0.3-0.3,0.3-0.8,0-1.4s-0.8-1.7-1.3-2.4c-0.3-0.7-0.7-0.8-1.4-0.7
		c-1.7,0.2-1.9-0.2-1.9-1.8c0-0.2,0-0.3,0-0.6c0-1.1,0.2-1.3,1.3-1.4c3.2-0.2,6.6-0.2,9.8,0c0.8,0,1.8,0,2.4,0.2
		c0.3,0.1,0.7,0.3,0.8,0.7c0.1,0.6-0.3,0.7-0.7,0.8c-0.7,0.3-1.4,0.6-2.2,0.7c-1.8,0.2-3.1,0.4-4.7,0.7c-0.3,0-0.8,0-0.7,0.3
		c0.2,0.7,0.6,1.4,1,2.1c0.3,0.7,0.8,0.6,1.4,0.6c8.9,0,17.5,0,26.6,0c1,0,2-0.1,3-0.1c0.6,0,0.7-0.3,0.6-0.7
		c-0.3-0.7-0.7-1.4-0.8-2.2c-0.3-1.3-1.2-1.8-2.4-1.8c-1.8,0-3.6-0.1-5.4-0.2c-1.1-0.1-2.1-1-2.1-1.8C56.7,0.8,57.1,0.4,58.2,0z
		 M95.6,36.7c0-0.3,0-0.6,0-0.8c0.3-6.3-6.6-13.6-12.2-13.6c-1.4,0-3-0.3-4.5-0.2c-1.1,0.1-1.3,0.3-0.8,1.4c0.3,1.1,0.7,2.1,1.1,3.1
		c1,2.6,2.2,5.2,3.1,7.8c0.3,0.7,0.3,1.7,0.2,2.4c-0.2,0.6-0.3,1-1.1,1.1c-0.6,0.1-1-0.2-1.3-0.6c-0.7-0.7-1-1.4-1.3-2.3
		c-1.4-3.2-2.6-6.4-4.1-9.6c-0.6-1.4-1.2-1.4-2.2-0.7c-4.2,3.4-6.2,7.8-5.5,13.3c0.7,7.6,8.7,13.6,16.2,12.2
		c4.7-0.8,7.9-3.6,10.6-7.6C95,40.8,95.8,38.8,95.6,36.7z M26.7,37.9L26.7,37.9c-2,0.1-4.1,0.1-6.2,0.1c-0.7,0-1.4,0-2.1-0.2
		c-0.8-0.2-1.1-0.7-0.7-1.4c0.2-0.6,0.3-1.1,0.7-1.7c0.7-1.3,1.4-2.4,2.3-3.6c1.4-2.2,2.8-4.4,4.3-6.6c0.6-0.8,0.6-1-0.6-1.3
		c-0.6-0.1-1.2-0.3-1.8-0.3c-4.3-0.7-8.3,0-11.9,2.6c-4,3-5.4,7.2-4.7,12.3c0.8,5,3.5,8.6,7.9,10.6c4.5,2,8.9,1.4,13.3-0.7
		c3.6-1.8,5.8-4.7,6.4-8.7c0.1-1,0.1-1.1-1-1.1C30.8,37.9,28.7,37.9,26.7,37.9z M48.9,31.8c0.1,0,0.1,0,0.2-0.1c0-0.3-0.1-1-0.1-1.4
		c0-1.3-0.1-2.4-0.1-3.6c0-0.3,0-0.7,0.3-0.7c1.1-0.1,2.2-0.2,3.2,0.1c0.3,0.1,0.6,0.3,0.6,0.7s-0.2,0.7-0.3,0.8
		c-0.3,0.2-1,0.2-1.4,0.3C51,28,50.6,28,50.6,28.5c-0.1,1.2,0,2.2,0.1,3.4c0.3-0.3,0.6-0.6,0.7-0.7c3-3.6,6-7.3,8.9-11
		c1.8-2.3,3.6-4.5,5.3-6.9c0.6-0.7,0.3-1-0.6-1.1c-1.4-0.1-3-0.2-4.4-0.2c-6.8,0-13.8,0-20.7,0c-1.1,0-1.2,0.1-0.7,1.1
		c2.2,4.3,4.4,8.6,6.6,12.9C46.9,27.9,47.8,29.8,48.9,31.8z M42,34C42,34,42,34.1,42,34c1.2,0,2.4,0,3.4,0s1.1-0.1,0.7-1.1
		c-1.8-3.1-3.3-6.3-5.1-9.4c-1.8-3-3.3-6.2-5.1-8.9c-0.6-0.8-0.7-0.7-1.2,0c-1.3,2.1-2.4,4.2-3.6,6.2c-0.3,0.7-0.3,1,0.1,1.4
		c3,3.2,5.3,6.6,6.4,11c0.1,0.6,0.3,0.7,1,0.7C39.5,34,40.8,34,42,34z M28.4,34.3L28.4,34.3c1.4-0.1,3-0.1,4.4-0.1
		c0.7,0,1-0.2,0.8-1c-0.3-3.1-2.2-5.5-4.4-7.5c-0.3-0.3-0.7-0.2-0.8,0.2c-1.8,2.6-3.2,5.2-4.9,7.6c-0.3,0.6-0.2,0.7,0.3,0.7
		C25.5,34.3,26.9,34.3,28.4,34.3z"/>
</g>
<g id="trans">
	<path id="path5" style="fill:#FFFEF1;" d="M10.9,1.6v18.2h7.3v-5.5l5.5,5.5l-5.5,5.5l5.5,5.5l5.5-5.5l1.8,1.8
		c-3.6,4.5-5.7,10.3-5.7,16.4c0,13.2,9.7,24.3,22.5,26.3v9.5H37.4v8.1h10.5v9.5H56v-9.5h10.5v-8.1H55.9v-9.5l0,0
		c12.6-2,22.5-13,22.5-26.3c0-6.1-2.2-11.9-5.7-16.4l12.6-12.6v11.7h7.3V1.6H68.2v7.3h11.7L67,21.7c-4.3-3-9.5-4.9-15.2-4.9
		s-10.9,1.8-15.2,4.9l-2-2l5.5-5.5l-5.5-5.5l-5.5,5.5l-5.5-5.5h5.5V1.4H10.9V1.6z M51.8,24.1c10.5,0,19,8.7,19,19
		c0,10.5-8.7,19-19,19s-19-8.7-19-19C32.8,32.8,41.1,24.1,51.8,24.1L51.8,24.1z"/>
</g>
<g id="lock">
	<path style="fill:#FFFEF1;" d="M78.7,49c1.6,0,3,0.6,4.2,1.6s1.6,2.4,1.6,4.2v34.8c0,1.6-0.6,3-1.6,4.2s-2.4,1.6-4.2,1.6H20.6
		c-1.6,0-3-0.6-4.2-1.6c-1.2-1.2-1.6-2.4-1.6-4.2V54.7c0-1.6,0.6-3,1.6-4.2c1.2-1.2,2.4-1.6,4.2-1.6h2V29.4c0-7.5,2.6-13.8,7.9-19.2
		s11.7-7.9,19.2-7.9s13.8,2.6,19.2,7.9s7.9,11.7,7.9,19.2c0,1.2-0.4,2-1.2,2.8c-0.8,0.8-1.6,1.2-2.8,1.2H69c-1.2,0-2-0.4-2.8-1.2
		S65,30.6,65,29.4c0-4.2-1.6-7.9-4.5-10.9c-3-3-6.7-4.5-10.9-4.5s-7.9,1.6-10.9,4.5c-3,3-4.5,6.7-4.5,10.9v19.4h44.5V49z"/>
</g>
<g id="child">
	<circle style="fill:#FFFEF1;" cx="46.4" cy="13.2" r="10.3"/>
	<path style="fill:#FFFEF1;" d="M18.6,46.2C17,48,17,50.8,18.8,52.4c0.8,0.8,2,1.2,3,1.2c1.2,0,2.4-0.4,3.2-1.4l9.5-10.7V54l-1.2,36
		c-0.2,3,2,5.1,4.9,5.3h0.2c2.8,0,4.9-2.2,5.1-4.9l1-27.1h4L52,90.7c0.2,2.6,2.4,4.3,5.1,4.3c0.2,0,0.4,0,0.6,0
		c2.8-0.4,4.7-3,4.3-5.7L56.9,51l-0.2-15.6L68,30.2c1.2-0.6,2.2-1.6,2.4-3l4.5-17.6c0.6-2.4-0.8-4.7-3.2-5.5
		c-2.4-0.8-4.7,0.8-5.5,3.2l-4,15.6l-9.1,4.2H37.4c-0.2,0-0.4,0-0.6,0.2c-0.8,0.2-1.8,0.6-2.4,1.2L18.6,46.2z"/>
</g>
<g id="brain">
	<path style="fill:#2D2D2D;" d="M27.9,35c-1.6,0.4-2.4,2-2,3.4c0.4,1.6,2,2.4,3.4,2.2c1.6-0.4,2.4-2,2-3.4
		C30.8,35.6,29.4,34.6,27.9,35z"/>
	<path style="fill:#2D2D2D;" d="M53.6,23.1c-3.4,0-5.9,2.6-5.9,5.7s2.8,5.7,5.9,5.7c3.4,0,5.9-2.6,5.9-5.7S56.7,23.1,53.6,23.1z"/>
	<path style="fill:#2D2D2D;" d="M90.5,56.1l-0.6-2l-0.6-2l-0.8-1.8l-0.6-1.8l-0.8-1.8l-0.6-1.8L86,43.3l-0.4-1.8v-0.8l0.4-0.8
		l0.4-0.8v-0.8L86,36.8l-0.4-1.6l-0.4-1.6L84.8,32l-0.6-1.6l-0.6-1.6L83,27.3l-0.6-1.6l-0.6-1.4L81,22.9l-0.8-1.4l2.2-1.4l-0.8-1.4
		l-0.8-1.2L80,16.4l-0.8-1.2l-0.8-1l-0.8-1l-0.8-0.8l-1-0.8l-1-0.8l2-0.8l-1-0.8l-1-0.8l-1-0.6l-1-0.6l-1.2-0.6L70.4,6l-1.2-0.6
		L68,5l-1-0.3l-1.2-0.4L64.4,4L63,3.6l-1.4-0.4l-1.4-0.4l-1.6-0.4l-1.4-0.2L55.7,2l-1.6-0.2h-1.4h-1.6h-1.4h-1.6h-1.6h-1.4L43.7,2
		l-1.4,0.2l-1.6,0.2l-1.6,0.4L37.5,3L36,3.4l-1.6,0.4l-1.6,0.4l-1.6,0.4l-1.4,0.6l-1.4,0.6L27,6.4L25.6,7l-1.4,0.8l-1.4,0.8
		l-1.4,0.8l-1.2,1l-1.2,1l-1.2,1l-1,1l-1,1l-1,1.2l-1,1.2l-1,1.2l-0.5,1l-0.8,1.4l-0.8,1.4l-0.6,1.4l-0.6,1.4L8.9,26l-0.4,1.4
		l-0.4,1.4L7.7,30l-0.2,1.4l-0.4,3l-0.2,3v3l0.2,3l0.4,3L8.3,49l1,2.8l7.1,11.7c12.3,12.6,11.7,25.1,11.7,25.1v2.6v7.7h42.5l0.2-0.8
		v-2.4v-2.4l0.2-5.5l0.2-2.8l0.2-0.6l0.2-0.6l0.2-0.4l0.4-0.4l0.4-0.2l0.6-0.2l0.6-0.2l0.6-0.2h0.8H76h0.2H77h0.8l0.8,0.2h0.8
		l0.8,0.2H81h-2l1,0.2h1h1h0.6l0.6-0.2l0.6-0.2l0.6-0.2l0.6-0.4l0.4-0.4l0.4-0.4l0.4-0.4l0.2-1L86,78.5l-0.2-1.2v-1.2l0.2-0.4
		l0.2-0.4l0.2-0.4l0.2-0.4l0.2-0.4l0.2-0.4l0.2-0.4v-0.4v-0.6v-0.4L87,71.5l-0.2-0.4l-0.4-0.4L86,70.4L85.6,70L85,69.6l0.6-0.2
		l0.6-0.4l0.6-0.4l0.4-0.4l0.4-0.4l0.2-0.4L88,67l-0.2-0.4l-0.6-1.8l-0.4-1.6l-0.2-1.4v-1.4l0.8-0.4l0.8-0.4l0.6-0.4l0.6-0.4
		l0.4-0.4L90,58l0.2-0.4L90.5,56.1z M35.2,38.1L35,39.3c0,0,1.6,2,1.6,2.2l-1,1.6c0,0.2-2.6-0.4-2.6-0.4l-1,0.8L31.6,46l-1.8,0.4
		c-0.2,0-1.6-2.2-1.6-2.2L27,44c0,0-2,1.6-2.2,1.6l-1.6-1c-0.2,0,0.4-2.6,0.4-2.6L23,41l-2.6-0.4l-0.4-2c0-0.2,2-1.6,2-1.6l0.2-1.2
		l-1.6-2.2l1-1.6c0-0.2,2.6,0.4,2.6,0.4l1-0.6l0.4-2.6l1.8-0.4c0.2,0,1.6,2.2,1.6,2.2l1.2,0.2c0,0,2-1.6,2.2-1.6l1.6,1
		c0.2,0-0.4,2.6-0.4,2.6l0.6,1l2.6,0.4l0.4,2L35.2,38.1z M72.1,31c0,0.2-5.1,2.2-5.1,2.2l-1,2.2c0,0,2.2,4.9,2,5.1l-3,2.8
		c-0.2,0.2-5.1-2-5.1-2l-2.4,1c0,0-2,4.9-2.4,4.9H51c-0.2,0-2.2-4.9-2.2-4.9l-2.4-1c0,0-4.9,2.2-5.1,2l-3-2.8
		c-0.2-0.2,2.2-4.9,2.2-4.9l-1-2.2c0,0-5.1-2-5.1-2.2v-4c0-0.2,5.1-2.2,5.1-2.2l1-2.2c0,0-2.2-4.9-2-5.1l3-2.8c0.2-0.2,5.1,2,5.1,2
		l2.2-1c0,0,2-4.9,2.4-4.9h4.2c0.2,0,2.2,4.9,2.2,4.9l2.2,1c0,0,4.9-2.2,5.1-2l3,2.8c0.2,0.2-2.2,4.9-2.2,4.9l1,2.2
		c0,0,5.1,2,5.1,2.2v4C71.8,31,72.1,31,72.1,31z"/>
</g>
</svg>
