<?xml version="1.0" encoding="utf-8"?>
<!-- Generator: Adobe Illustrator 17.0.0, SVG Export Plug-In . SVG Version: 6.00 Build 0)  -->
<!DOCTYPE svg PUBLIC "-//W3C//DTD SVG 1.1//EN" "http://www.w3.org/Graphics/SVG/1.1/DTD/svg11.dtd">
<svg version="1.1" id="svg-sprites" xmlns="http://www.w3.org/2000/svg" xmlns:xlink="http://www.w3.org/1999/xlink" x="0px" y="0px"
	viewBox="0 0 864.5 72" xml:space="preserve">
<g id="bicycle">
	<path style="fill:#222222;" d="M658.8,2.6c3.8,0,7.6,0,11.2,0c0.9,0.3,1.4,0.8,1.8,1.7c0.7,1.6,1.4,3.3,2.1,4.8
		c2.2,5.3,4.3,10.6,6.4,15.9c0.3,0.8,0.8,1,1.6,0.9c1.7-0.1,3.4-0.1,5-0.1c2.1-0.1,4.2,0.1,6.3,0.7C702,28.8,711.6,38.6,709,52
		c-1.4,7-5.6,12-11.7,15.4c-2.2,1.2-4.7,1.8-7.2,2.3c-1.7,0-3.4,0-5.1,0c-0.1,0-0.4-0.1-0.5-0.1c-14.3-1.7-22.6-17.6-17.9-29.2
		c2-4.7,5-8.5,9.1-11.3c0.8-0.5,0.8-1.2,0.7-2c-0.5-2.3-1.6-4.4-2.6-6.5c-0.3-0.7-0.7-0.5-1-0.1c-0.7,0.8-1.4,1.7-2.2,2.5
		c-6.8,8.9-13.6,17.5-20.5,26.1c-0.5,0.5-0.7,1.2-0.7,2c0,2.6,0,5.3-0.1,8c0,0.4,0.1,1-0.4,1.3c-1.4,0.4-3,0.8-4.6,0.1
		c-0.4-0.1-0.7-0.5-0.7-1s0.4-0.8,0.9-0.8c0.5-0.1,0.9-0.1,1.4-0.1c0.7,0,0.9-0.3,0.9-0.9c0-2.1,0.3-4.3,0-6.4c-0.1-0.8-0.4-1-1-1
		c-3.9,0-7.8,0.1-11.7,0.1c-0.8,0-1.2,0.4-1.2,1.2c-0.1,0.9-0.3,1.7-0.5,2.6c-1.2,4.6-4.3,7.7-7.6,10.8c-2.6,2.5-5.7,3.8-9.1,4.7
		c-1,0.3-2.2,0.4-3.4,0.5c-1.6,0-3.1,0-4.6,0c-0.4-0.1-0.8-0.3-1.3-0.4C600,68,595,64.4,591.7,58.5c-1.4-2.5-2.2-5.1-2.7-8
		c0-2,0-3.9,0-5.9c0.1-0.3,0.1-0.7,0.3-0.9c1.2-5.5,3.8-10.2,8.5-13.4c2.5-1.8,5.1-3.4,8.2-3.9c4.4-0.9,8.9-0.5,13.2,0.7
		c0.8,0.3,1.3,0.1,1.7-0.5c2.3-3.7,4.7-7.3,7.2-11c0.4-0.5,0.4-1,0-1.7c-0.5-0.9-1-2-1.6-3c-0.4-0.8-0.9-1-1.8-0.9
		c-2,0.3-2.3-0.3-2.3-2.2c0-0.3,0-0.4,0-0.7c0-1.3,0.3-1.6,1.6-1.7c4-0.3,8.2-0.3,12.3,0c1,0,2.1,0,3.1,0.3c0.5,0.1,0.9,0.4,1,0.9
		c0.1,0.7-0.4,0.9-0.8,1c-0.9,0.4-1.8,0.7-2.7,0.8C634.8,8.7,633,9,631,9.2c-0.4,0-1,0-0.9,0.5c0.3,0.9,0.7,1.8,1.2,2.6
		c0.4,0.9,1,0.7,1.7,0.7c11.1,0,22,0,33.1,0c1.2,0,2.5-0.1,3.7-0.1c0.7,0,0.9-0.4,0.7-0.9c-0.4-0.9-0.8-1.8-1-2.7
		c-0.5-1.6-1.4-2.1-3-2.1c-2.2,0-4.6-0.1-6.8-0.3c-1.3-0.1-2.6-1.2-2.6-2.1C656.8,3.8,657.5,3.1,658.8,2.6z M705.5,48.4
		c0-0.4,0-0.7,0-1c0.4-7.8-8.3-16.9-15.3-16.9c-1.8,0-3.8-0.4-5.6-0.3c-1.3,0.1-1.6,0.4-1,1.7c0.4,1.3,0.9,2.6,1.3,3.9
		c1.2,3.4,2.7,6.5,3.9,9.9c0.4,0.9,0.5,2,0.3,3c-0.3,0.7-0.5,1.2-1.3,1.3c-0.7,0.1-1.2-0.3-1.6-0.7c-0.8-0.8-1.2-1.8-1.6-2.9
		c-1.7-4-3.3-8-5-12c-0.7-1.7-1.4-1.8-2.7-0.8c-5.2,4.3-7.6,9.8-6.9,16.6c0.9,9.5,10.8,16.9,20.3,15.3c5.9-1,10-4.6,13.2-9.5
		C704.8,53.6,705.7,51.1,705.5,48.4z M619.3,50.1L619.3,50.1c-2.5,0.1-5.1,0.1-7.6,0.1c-0.9,0-1.7,0-2.6-0.3c-1-0.3-1.3-0.9-0.9-1.8
		c0.3-0.7,0.5-1.3,0.9-2c0.9-1.6,1.8-3,2.9-4.6c1.8-2.7,3.5-5.5,5.3-8.3c0.7-1,0.7-1.2-0.7-1.6c-0.7-0.1-1.4-0.4-2.2-0.5
		c-5.3-0.9-10.4,0-14.9,3.4c-5.1,3.9-6.9,9.1-6,15.5c0.9,6.1,4.3,10.6,9.9,13c5.6,2.5,11.2,1.7,16.6-0.9c4.6-2.2,7.2-5.9,8-10.8
		c0.1-1.2,0.1-1.3-1.2-1.3C624.5,50.1,621.9,50.1,619.3,50.1z M647.1,42.4c0.1,0,0.1,0,0.3-0.1c0-0.5-0.1-1.2-0.1-1.7
		c0-1.6-0.1-3.1-0.1-4.6c0-0.4,0-0.9,0.5-0.9c1.3-0.1,2.7-0.3,4,0.1c0.4,0.1,0.7,0.4,0.7,0.9c0,0.4-0.3,0.8-0.5,1
		c-0.5,0.3-1.2,0.3-1.7,0.4c-0.4,0.1-0.8,0.1-0.8,0.7c-0.1,1.4,0,2.7,0.1,4.3c0.4-0.4,0.7-0.7,0.8-0.9c3.8-4.6,7.4-9.1,11.1-13.8
		c2.2-2.9,4.6-5.7,6.6-8.7c0.7-0.9,0.4-1.2-0.7-1.3c-1.8-0.1-3.7-0.3-5.5-0.3c-8.6,0-17.2,0-25.9,0c-1.3,0-1.4,0.1-0.8,1.3
		c2.7,5.3,5.5,10.7,8.2,16.2C644.6,37.4,645.9,39.9,647.1,42.4z M638.5,45.1C638.5,45.1,638.5,45.2,638.5,45.1c1.4,0,3,0,4.4,0
		c1.2,0,1.3-0.1,0.8-1.3c-2.1-3.9-4.2-7.8-6.4-11.7c-2.1-3.8-4.2-7.6-6.4-11.1c-0.7-1-0.8-0.9-1.4,0c-1.6,2.6-3.1,5.2-4.7,7.7
		c-0.5,0.8-0.4,1.2,0.1,1.8c3.7,4,6.6,8.3,8,13.8c0.1,0.7,0.5,0.8,1.2,0.8C635.5,45.1,637,45.1,638.5,45.1z M621.5,45.4L621.5,45.4
		c1.8-0.1,3.7-0.1,5.5-0.1c0.9,0,1.2-0.3,1-1.2c-0.5-3.9-2.7-6.9-5.5-9.4c-0.5-0.4-0.8-0.3-1,0.3c-2.1,3.3-4,6.5-6.1,9.6
		c-0.4,0.7-0.3,0.9,0.5,0.9C617.9,45.4,619.7,45.4,621.5,45.4z"/>
</g>
<g id="donate">
	<path style="fill:#222222;" d="M568.3,35.3c0,11-9,20-20,20h-160c-11,0-20-9-20-20l0,0c0-11,9-20,20-20h160
		C559.3,15.3,568.3,24.3,568.3,35.3L568.3,35.3z M418.4,49.5c3.8,0,5.8-0.8,6.9-2.9c1.1-2.1,1.2-5.6,1.2-11s-0.2-8.9-1.2-11
		c-1.1-2.1-3.1-2.9-6.9-2.9h-3.2v27.8H418.4z M419.2,25.8c1.4,0,2.2,0.2,2.6,1.5c0.2,0.7,0.3,1.7,0.4,2.9c0,1.3,0,3.1,0,5.4
		s0,4,0,5.4s-0.2,2.3-0.4,2.9c-0.4,1.4-1.2,1.5-2.6,1.5V25.8z M444.8,27.4c0-1.1-0.3-2.1-0.7-3c-0.3-0.8-0.9-1.5-1.6-2.1
		c-0.8-0.6-1.8-0.9-3.1-0.9c-1.4,0-2.4,0.4-3.2,0.9s-1.2,1.3-1.6,2.1c-0.4,0.9-0.6,1.9-0.7,3v16.4c0,1.1,0.3,2.2,0.7,3
		c0.3,0.8,0.8,1.5,1.6,2c0.8,0.6,1.8,0.9,3.2,0.9s2.4-0.3,3.1-0.9c0.8-0.6,1.3-1.3,1.6-2c0.4-0.9,0.6-1.9,0.7-3V27.4z M440.8,43.8
		c0,0.4,0,0.8-0.2,1c-0.2,0.6-0.5,1-1.2,1c-0.3,0-0.6-0.1-0.8-0.3c-0.4-0.4-0.6-0.9-0.6-1.7V27.4c0-0.4,0-0.7,0.2-1
		c0.2-0.5,0.5-1,1.2-1c0.3,0,0.6,0.1,0.8,0.3c0.4,0.5,0.5,1,0.5,1.7v16.4H440.8z M460.9,49.5h3.6V21.7h-3.7v15.7h-0.2l-0.3-1.3
		l-4-14.4h-3.6v27.8h3.7V33.8h0.2l0.3,1.3L460.9,49.5z M475.4,49.5l0.8-5.7h3.9l0.8,5.7h4l-4.2-27.8h-5l-4.2,27.8H475.4z
		 M479.5,39.5h-2.8l1.2-8.8L478,30h0.2l0.1,0.7L479.5,39.5z M493.3,25.9v23.6h4.1V25.9h3.9v-4.2h-11.8v4.2
		C489.5,25.9,493.3,25.9,493.3,25.9z M507.8,49.5h9.3v-4.2h-5.2v-7.6h3.8v-4.5h-3.8v-7.3h5.2v-4.2h-9.3V49.5z"/>
</g>
<g id="facebook">
	<path style="fill:#FFFEF1;" d="M144.3,0v72h72V0H144.3z M190.1,36h-6.3c0,10.1,0,22.5,0,22.5h-9.4c0,0,0-12.2,0-22.5h-4.5v-7.9h4.5
		v-5.2c0-3.6,1.8-9.4,9.4-9.4h6.8v7.7c0,0-4.1,0-5,0s-2,0.4-2,2.2v4.7h7.2L190.1,36z"/>
</g>
<g id="twitter">
	<path style="fill:#FFFEF1;" d="M216,0v72h72V0H216z M262.3,58.5c-1.6,0-10.3-0.2-12.6-0.2c-2.2,0-13.9-3.6-13.9-16.4
		c0-2.3,0-4.5,0-6.8c0-2.2,0-4.3,0-6.3c0-0.5,0-1.3,0-1.8c0-3.2-0.4-6.8,0.7-9.9c0.7-2.3,2.7-3.2,5-3.2c5.6,0,5.9,5.8,5.9,11.5h16.2
		c2.5,0,4.5,2.5,4.5,6.7c0,4-4.1,4.9-6.3,4.9h-14.6c0,2.3-0.2,4.5-0.2,5.6c0,2.5,0.9,5.2,7.2,5.2h8.6c2.2,0,5.4,1.6,5.4,6.3
		C268.4,58.1,263.9,58.5,262.3,58.5z"/>
</g>
<g id="instagram">
	<g>
		<path style="fill:#FFFEF1;" d="M324.3,43.9c4.3,0,7.9-3.6,7.9-7.9c0-1.8-0.5-3.2-1.4-4.7c-1.4-2-3.8-3.2-6.5-3.2s-5,1.3-6.5,3.2
			c-0.9,1.3-1.4,2.9-1.4,4.7C316.4,40.3,320,43.9,324.3,43.9z"/>
		<polygon style="fill:#FFFEF1;" points="341.6,26.3 341.6,19.6 341.6,18.7 340.7,18.7 334.1,18.7 334.1,26.3 		"/>
		<path style="fill:#FFFEF1;" d="M336.6,36c0,6.8-5.6,12.2-12.2,12.2c-6.8,0-12.2-5.6-12.2-12.2c0-1.6,0.4-3.2,0.9-4.7h-6.7v18.4
			c0,2.3,2,4.3,4.3,4.3h27.5c2.3,0,4.3-2,4.3-4.3V31.3h-6.7C336.4,32.8,336.6,34.4,336.6,36z"/>
		<path style="fill:#FFFEF1;" d="M288.3,0v72h72V0H288.3z M346.8,31.3v18.4c0,4.9-4,8.6-8.6,8.6h-27.7c-4.9,0-8.6-4-8.6-8.6V31.3
			v-9.2c0-4.9,4-8.6,8.6-8.6H338c4.9,0,8.6,4,8.6,8.6L346.8,31.3L346.8,31.3z"/>
	</g>
</g>
<g id="trans">
	<path id="path5" style="fill:#FFFEF1;" d="M78.3,1.2v13.3h5.3v-4l4,4l-4,4l4,4l4-4l1.3,1.3c-2.6,3.3-4.2,7.5-4.2,12
		c0,9.7,7.1,17.8,16.5,19.2v6.9h-7.6v6h7.6v7h6v-7h7.6v-6h-7.6V51l0,0c9.3-1.4,16.5-9.5,16.5-19.2c0-4.5-1.6-8.7-4.2-12l9.3-9.3v8.6
		h5.3V1.2h-17.9v5.3h8.6l-9.4,9.4c-3.2-2.2-7-3.6-11.2-3.6s-8,1.3-11.2,3.6l-1.4-1.4l4-4l-4-4l-4,4l-4-4h4V1.2H78.3z M108.2,17.7
		c7.7,0,13.9,6.3,13.9,13.9s-6.3,13.9-13.9,13.9s-13.9-6.3-13.9-13.9S100.5,17.7,108.2,17.7L108.2,17.7z"/>
</g>
<g id="brain">
	<g>
		<path style="fill:#FFFEF1;" d="M31.3,32.7L31.3,32.7L31.3,32.7L31.3,32.7z"/>
		<path style="fill:#FFFEF1;" d="M31.3,32.7C31.3,32.5,31.3,32.5,31.3,32.7C31.3,32.5,31.3,32.5,31.3,32.7z"/>
		<path style="fill:#FFFEF1;" d="M58.6,32.7L58.6,32.7L58.6,32.7z"/>
		<path style="fill:#FFFEF1;" d="M58.6,32.7L58.6,32.7L58.6,32.7z"/>
		<path style="fill:#FFFEF1;" d="M66.4,11.7c-6-7.2-22.8-12.3-37.1-8.3C14.4,7.7,6.8,17,5.9,33.8c0,1.3-0.4,2.5-0.9,3.6l-3.8,7.8
			c-0.2,0.7-0.2,1.3,0,2s0.9,1.1,1.3,1.3l1.1,0.2c1.1,0.4,1.8,1.3,1.8,2.5C5.2,66.2,5.9,70,21.5,70C38.3,70,36,57.7,56.4,55.3
			C71.6,53.5,76.7,24,66.4,11.7z M62.4,30.9c0,0.9-0.7,1.6-1.8,1.6h-2l0,0c-0.4,1.3-0.9,2.7-1.6,3.8l1.3,1.3c0.7,0.7,0.7,1.8,0,2.5
			l-2.5,2.5c-0.7,0.7-1.8,0.7-2.5,0L52,41.3c-1.1,0.7-2.5,1.1-3.8,1.6c0,0,0,0.9,0,2c0,0.9-0.7,1.8-1.8,1.8H43
			c-0.4,0-0.9-0.2-1.1-0.4s-0.4-0.7-0.4-1.1v-1.8c-1.3-0.4-2.7-0.9-3.8-1.6L36.3,43c-0.2,0.2-0.7,0.4-1.1,0.4
			c-0.4,0-0.9-0.2-1.1-0.4l-2.5-2.5c-0.2-0.2-0.4-0.7-0.4-1.1s0.2-0.9,0.4-1.1l1.3-1.3c-0.7-1.1-1.3-2.5-1.6-3.8l0,0h-1.8
			c-0.9,0-1.8-0.7-1.8-1.6V28c0-0.9,0.7-1.8,1.8-1.8h1.8l0,0c0.2-1.3,0.9-2.7,1.6-3.8l-1.3-1.3c-0.7-0.7-0.7-1.8,0-2.5l2.5-2.9
			c0.2-0.2,0.7-0.4,1.1-0.4s0.9,0.2,1.1,0.4l1.3,1.3c1.1-0.7,2.5-1.3,3.8-1.6v-1.8c0-0.4,0.2-0.9,0.4-1.1c0.2-0.2,0.7-0.4,1.1-0.4
			h3.6c0.9,0,1.8,0.7,1.8,1.8c0,0.9,0,2,0,2c1.3,0.4,2.7,0.9,3.8,1.6l1.3-1.3c0.4-0.7,0.9-0.9,1.3-0.9s0.9,0.2,1.1,0.4l2.5,2.5
			c0.7,0.7,0.7,1.8,0,2.5L57,22c0.7,1.1,1.1,2.5,1.6,3.8l0,0h2c0.9,0,1.8,0.7,1.8,1.6L62.4,30.9L62.4,30.9z"/>
		<circle style="fill:#FFFEF1;" cx="45" cy="29.3" r="4.9"/>
	</g>
</g>
<g id="lock">
	<path style="fill:#FFFEF1;" d="M779.8,36c1.2,0,2.2,0.4,3,1.2s1.2,1.8,1.2,3v25.5c0,1.2-0.4,2.2-1.2,3s-1.8,1.2-3,1.2h-42.5
		c-1.2,0-2.2-0.4-3-1.2c-0.8-0.8-1.2-1.8-1.2-3V40.3c0-1.2,0.4-2.2,1.2-3s1.8-1.2,3-1.2h1.4V21.8c0-5.5,1.9-10.1,5.8-14
		s8.6-5.8,14-5.8c5.5,0,10.1,1.9,14,5.8s5.8,8.6,5.8,14c0,0.8-0.3,1.4-0.8,2c-0.6,0.6-1.2,0.8-2,0.8h-2.8c-0.8,0-1.4-0.3-2-0.8
		c-0.6-0.6-0.8-1.2-0.8-2c0-3.1-1.1-5.8-3.3-8s-4.9-3.3-8-3.3s-5.8,1.1-8,3.3s-3.3,4.9-3.3,8V36H779.8L779.8,36z"/>
</g>
<g id="child">
	<circle style="fill:#FFFEF1;" cx="828.6" cy="9.7" r="7.5"/>
	<path style="fill:#FFFEF1;" d="M808.1,34c-1.2,1.3-1.1,3.3,0.2,4.5c0.6,0.6,1.4,0.9,2.2,0.9c0.9,0,1.7-0.3,2.3-1l7-7.8v9.1
		l-0.9,26.4c-0.1,2.1,1.5,3.8,3.6,3.9c0,0,0.1,0,0.1,0c2,0,3.6-1.6,3.7-3.6l0.7-19.8h2.9l2.6,20.1c0.2,1.9,1.8,3.2,3.7,3.2
		c0.2,0,0.3,0,0.5,0c2-0.3,3.5-2.1,3.2-4.2l-3.7-28.1l-0.1-11.4l8.2-3.7c0.9-0.4,1.6-1.2,1.8-2.2l3.3-12.9c0.5-1.7-0.6-3.5-2.3-4
		c-1.7-0.5-3.5,0.6-4,2.3l-2.9,11.4l-6.6,3h-11.6c-0.2,0-0.3,0-0.5,0.1c-0.6,0.1-1.3,0.4-1.7,0.9L808.1,34z"/>
</g>
</svg>
