<?xml version="1.0" encoding="utf-8"?>
<!-- Generator: Adobe Illustrator 17.0.0, SVG Export Plug-In . SVG Version: 6.00 Build 0)  -->
<!DOCTYPE svg PUBLIC "-//W3C//DTD SVG 1.1//EN" "http://www.w3.org/Graphics/SVG/1.1/DTD/svg11.dtd">
<svg version="1.1" id="svg-sprites--social-media" xmlns="http://www.w3.org/2000/svg" xmlns:xlink="http://www.w3.org/1999/xlink" x="0px"
	 y="0px" viewBox="0 0 300 100" 
	 xml:space="preserve">
<g id="facebook">
	<path style="fill:#FFFEF1;" d="M0,0v98.4h98.2V0H0z M62.5,49.2h-8.7c0,13.8,0,30.6,0,30.6H40.9c0,0,0-16.6,0-30.6h-6.1V38.3h6.1
		v-7.1c0-4.9,2.4-12.8,12.8-12.8H63v10.5c0,0-5.5,0-6.9,0c-1.2,0-2.8,0.6-2.8,3v6.3h9.9L62.5,49.2z"/>
</g>
<g id="twitter">
	<path style="fill:#FFFEF1;" d="M0,0v98.4h98.2V0H0z M63,79.8c-2.2,0-14-0.2-17.2-0.2c-3,0-19-4.9-19-22.3c0-3.2,0-6.1,0-9.3
		c0-3,0-5.9,0-8.7c0-0.6,0-1.8,0-2.4c0-4.3-0.6-9.3,1-13.4c1-3.2,3.8-4.3,6.9-4.3c7.7,0,8.1,7.9,8.1,15.6H65c3.4,0,6.1,3.4,6.1,9.1
		c0,5.5-5.5,6.7-8.7,6.7h-20c0,3.2-0.2,6.1-0.2,7.7c0,3.4,1.2,7.1,9.9,7.1h11.7c3,0,7.3,2.2,7.3,8.7C71.5,79.4,65.4,79.8,63,79.8z"
		/>
</g>
<g id="instagram">
	<g>
		<path style="fill:#FFFEF1;" d="M49,60.1c5.9,0,10.9-4.9,10.9-10.9c0-2.4-0.6-4.3-2-6.3c-2-2.8-5.1-4.3-8.9-4.3
			c-3.8,0-6.9,1.8-8.9,4.3c-1.2,1.8-2,4-2,6.3C38.3,55.1,43.3,60.1,49,60.1z"/>
		<polygon style="fill:#FFFEF1;" points="72.7,36 72.7,26.9 72.7,25.5 71.5,25.5 62.5,25.5 62.5,36 		"/>
		<path style="fill:#FFFEF1;" d="M65.8,49.2c0,9.3-7.7,16.6-16.6,16.6c-9.3,0-16.6-7.7-16.6-16.6c0-2.2,0.6-4.3,1.2-6.3h-9.1V68
			c0,3.2,2.8,5.9,5.9,5.9h37.5c3.2,0,5.9-2.8,5.9-5.9V42.9H65C65.6,44.9,65.8,47,65.8,49.2z"/>
		<path style="fill:#FFFEF1;" d="M0,0v98.4h98.2V0H0z M79.8,42.9V68c0,6.7-5.5,11.7-11.7,11.7H30.4c-6.7,0-11.7-5.5-11.7-11.7V42.9
			V30.2c0-6.7,5.5-11.7,11.7-11.7H68c6.7,0,11.7,5.5,11.7,11.7L79.8,42.9L79.8,42.9z"/>
	</g>
</g>
</svg>