<?xml version="1.0" encoding="utf-8"?>
<!-- Generator: Adobe Illustrator 17.0.0, SVG Export Plug-In . SVG Version: 6.00 Build 0)  -->
<!DOCTYPE svg PUBLIC "-//W3C//DTD SVG 1.1//EN" "http://www.w3.org/Graphics/SVG/1.1/DTD/svg11.dtd">
<svg version="1.1" id="svg-sprites" xmlns="http://www.w3.org/2000/svg" xmlns:xlink="http://www.w3.org/1999/xlink" x="0px"
	 y="0px" viewBox="0 0 300 100" 
	 xml:space="preserve">
<g id="bicycle">
	<path style="fill:#222222;" d="M111.5,2.8c5.1,0,10.5,0,15.2,0c1.2,0.4,2,1.2,2.4,2.4c1,2.2,2,4.5,3,6.5c3,7.3,5.9,14.4,8.7,21.7
		c0.4,1.2,1.2,1.4,2.2,1.2c2.4-0.2,4.5-0.2,6.9-0.2c3-0.2,5.7,0.2,8.7,1c12.1,3.2,25.1,16.6,21.5,34.8c-2,9.5-7.7,16.4-16,20.9
		c-3,1.6-6.3,2.4-9.9,3.2c-2.4,0-4.5,0-6.9,0c-0.2,0-0.6-0.2-0.6-0.2c-19.6-2.4-30.8-24.1-24.5-39.9c2.8-6.3,6.9-11.7,12.5-15.4
		c1.2-0.6,1.2-1.6,1-2.8c-0.6-3.2-2.2-5.9-3.6-8.9c-0.4-1-1-0.6-1.4-0.2c-1,1.2-2,2.4-3,3.4c-9.3,12.3-18.6,23.9-28.1,35.6
		c-0.6,0.6-1,1.6-1,2.8c0,3.6,0,7.3-0.2,10.9c0,0.6,0.2,1.4-0.6,1.8c-2,0.6-4.2,1.2-6.3,0.2c-0.6-0.2-1-0.6-1-1.4
		c0-0.8,0.6-1.2,1.2-1.2c0.6-0.2,1.2-0.2,2-0.2c1,0,1.2-0.4,1.2-1.2c0-3,0.4-5.9,0-8.7c-0.2-1.2-0.6-1.4-1.4-1.4
		c-5.3,0-10.7,0.2-16,0.2c-1.2,0-1.6,0.6-1.6,1.6c-0.2,1.2-0.4,2.4-0.6,3.6c-1.6,6.3-5.9,10.5-10.5,14.8c-3.6,3.4-7.7,5.1-12.5,6.3
		c-1.4,0.4-3,0.6-4.5,0.6c-2.2,0-4.2,0-6.3,0c-0.6-0.2-1.2-0.4-1.8-0.6c-8.7-2.4-15.6-7.3-20.2-15.4c-2-3.4-3-6.9-3.8-10.9
		c0-2.8,0-5.3,0-8.1c0.2-0.4,0.2-1,0.4-1.2c1.6-7.5,5.1-13.8,11.7-18.4c3.4-2.4,6.9-4.5,11.3-5.3c5.9-1.2,12.3-0.6,18,1
		c1.2,0.4,1.8,0.2,2.4-0.6c3.2-5.1,6.3-9.9,9.9-15c0.6-0.6,0.6-1.4,0-2.4c-0.6-1.2-1.4-2.8-2.2-4.2c-0.6-1.2-1.2-1.4-2.4-1.2
		c-2.8,0.4-3.2-0.4-3.2-3c0-0.4,0-0.6,0-1c0-1.8,0.4-2.2,2.2-2.4c5.5-0.4,11.3-0.4,16.8,0c1.4,0,3,0,4.2,0.4
		c0.6,0.2,1.2,0.6,1.4,1.2c0.2,1-0.6,1.2-1.2,1.4c-1.2,0.6-2.4,1-3.8,1.2c-3,0.4-5.3,0.8-8.1,1.2c-0.6,0-1.4,0-1.2,0.6
		c0.4,1.2,1,2.4,1.6,3.6c0.6,1.2,1.4,1,2.4,1c15.2,0,30,0,45.3,0c1.6,0,3.4-0.2,5.1-0.2c1,0,1.2-0.6,1-1.2c-0.6-1.2-1.2-2.4-1.4-3.8
		c-0.6-2.2-2-3-4.2-3c-3,0-6.3-0.2-9.3-0.4c-1.8-0.2-3.6-1.6-3.6-3C108.9,4.3,109.7,3.6,111.5,2.8z M175.3,65.4c0-0.6,0-1,0-1.4
		c0.6-10.7-11.3-23.1-20.9-23.1c-2.4,0-5.1-0.6-7.7-0.4c-1.8,0.2-2.2,0.6-1.4,2.4c0.6,1.8,1.2,3.6,1.8,5.3c1.6,4.5,3.8,8.9,5.3,13.4
		c0.6,1.2,0.6,2.8,0.4,4.2c-0.4,1-0.6,1.6-1.8,1.8c-1,0.2-1.6-0.4-2.2-1c-1.2-1.2-1.6-2.4-2.2-4c-2.4-5.5-4.5-10.9-6.9-16.4
		c-1-2.4-2-2.4-3.8-1.2c-7.1,5.9-10.5,13.4-9.5,22.7c1.2,13,14.8,23.1,27.7,20.9c8.1-1.4,13.6-6.3,18-13
		C174.3,72.5,175.7,69,175.3,65.4z M57.7,67.6L57.7,67.6c-3.4,0.2-6.9,0.2-10.5,0.2c-1.2,0-2.4,0-3.6-0.4c-1.4-0.4-1.8-1.2-1.2-2.4
		c0.4-1,0.6-1.8,1.2-2.8c1.2-2.2,2.4-4.2,4-6.3c2.4-3.8,4.7-7.5,7.3-11.3c1-1.4,1-1.6-1-2.2c-1-0.2-2-0.6-3-0.6
		c-7.3-1.2-14.2,0-20.4,4.5c-6.9,5.3-9.5,12.5-8.1,21.1C23.7,75.9,28.5,82,36,85.4c7.7,3.4,15.2,2.4,22.7-1.2
		c6.3-3,9.9-8.1,10.9-14.8c0.2-1.6,0.2-1.8-1.6-1.8C64.6,67.6,61.1,67.6,57.7,67.6z M95.7,57.1c0.2,0,0.2,0,0.4-0.2
		c0-0.6-0.2-1.6-0.2-2.4c0-2.2-0.2-4.2-0.2-6.3c0-0.6,0-1.2,0.6-1.2c1.8-0.2,3.8-0.4,5.5,0.2c0.6,0.2,1,0.6,1,1.2
		c0,0.6-0.4,1.2-0.6,1.4c-0.6,0.4-1.6,0.4-2.4,0.6c-0.6,0.2-1.2,0.2-1.2,1c-0.2,2,0,3.8,0.2,5.9c0.6-0.6,1-1,1.2-1.2
		c5.1-6.3,10.1-12.5,15.2-18.8c3-4,6.3-7.7,9.1-11.9c1-1.2,0.6-1.6-1-1.8c-2.4-0.2-5.1-0.4-7.5-0.4c-11.7,0-23.5,0-35.4,0
		c-1.8,0-2,0.2-1.2,1.8c3.8,7.3,7.5,14.6,11.3,22.1C92.1,50.4,93.9,53.8,95.7,57.1z M83.8,60.9C83.8,60.9,83.8,61.1,83.8,60.9
		c2,0,4.2,0,5.9,0c1.6,0,1.8-0.2,1.2-1.8c-3-5.3-5.7-10.7-8.7-16c-3-5.1-5.7-10.5-8.7-15.2c-1-1.4-1.2-1.2-2,0
		c-2.2,3.6-4.2,7.1-6.3,10.5c-0.6,1.2-0.6,1.6,0.2,2.4c5.1,5.5,9.1,11.3,10.9,18.8c0.2,1,0.6,1.2,1.6,1.2
		C79.6,60.9,81.8,60.9,83.8,60.9z M60.7,61.3L60.7,61.3c2.4-0.2,5.1-0.2,7.5-0.2c1.2,0,1.6-0.4,1.4-1.6c-0.6-5.3-3.8-9.5-7.5-12.8
		c-0.6-0.6-1.2-0.4-1.4,0.4c-3,4.5-5.5,8.9-8.3,13c-0.6,1-0.4,1.2,0.6,1.2C55.7,61.3,58.1,61.3,60.7,61.3z"/>
</g>
<g id="donate">
	<path d="M296.5,48.4c0,16-13,29.2-29.2,29.2H33.6c-16,0-29.2-13-29.2-29.2l0,0c0-16,13-29.2,29.2-29.2h233.6
		C283.2,19.2,296.5,32.2,296.5,48.4L296.5,48.4z M77.5,69.2C83,69.2,86,68,87.6,65c1.6-3.2,1.8-8.1,1.8-16s-0.2-13-1.8-16
		c-1.6-3.2-4.5-4.2-10.1-4.2h-4.7v40.5h4.7V69.2z M78.7,34.4c2,0,3.2,0.2,3.8,2.2c0.2,1,0.4,2.6,0.6,4.2c0,2,0,4.5,0,7.9
		s0,5.9,0,7.9s-0.2,3.4-0.6,4.2c-0.6,2-1.8,2.2-3.8,2.2V34.4z M116,36.8c0-1.6-0.4-3.2-1-4.3c-0.4-1.2-1.4-2.2-2.4-3.2
		c-1.2-0.8-2.6-1.4-4.5-1.4s-3.6,0.6-4.7,1.4c-1.2,0.8-1.8,2-2.4,3.2c-0.6,1.4-0.8,2.8-1,4.3v23.9c0,1.6,0.4,3.2,1,4.3
		c0.4,1.2,1.2,2.2,2.4,3c1.2,0.8,2.6,1.4,4.7,1.4s3.6-0.4,4.5-1.4c1.2-0.8,2-2,2.4-3c0.6-1.4,0.8-2.8,1-4.3V36.8z M110.3,60.7
		c0,0.6,0,1.2-0.2,1.4c-0.2,0.8-0.8,1.4-1.8,1.4c-0.4,0-0.8-0.2-1.2-0.4c-0.6-0.6-0.8-1.4-0.8-2.6V36.6c0-0.6,0-1,0.2-1.4
		c0.2-0.8,0.8-1.4,1.8-1.4c0.4,0,0.8,0.2,1.2,0.4c0.6,0.8,0.8,1.4,0.8,2.6V60.7L110.3,60.7z M139.5,69.2h5.3V28.7h-5.3v22.9h-0.2
		l-0.4-2L133,28.7h-5.3v40.5h5.3V46.2h0.2l0.4,2L139.5,69.2z M160.7,69.2l1.2-8.3h5.7l1.2,8.3h5.9l-6.1-40.5h-7.3l-6.1,40.5H160.7z
		 M166.8,54.5h-4.2l1.8-12.8l0.2-1h0.2l0.2,1L166.8,54.5z M187,34.6V69h5.9V34.6h5.7v-6.1h-17.4v6.1H187z M208.1,69.2h13.6V63h-7.5
		V52h5.5v-6.7h-5.5V34.6h7.5v-6.1h-13.6V69.2z"/>
</g>
<g id="trans">
	<path id="path5" style="fill:#FFFEF1;" d="M10.9,1.6v18.2h7.3v-5.5l5.5,5.5l-5.5,5.5l5.5,5.5l5.5-5.5l1.8,1.8
		c-3.6,4.5-5.7,10.3-5.7,16.4c0,13.2,9.7,24.3,22.5,26.3v9.5H37.4v8.1h10.5v9.5h8.1v-9.5h10.5v-8.1H55.9v-9.5l0,0
		c12.6-2,22.5-13,22.5-26.3c0-6.1-2.2-11.9-5.7-16.4l12.6-12.6v11.7h7.3V1.6H68.2v7.3h11.7L67,21.7c-4.3-3-9.5-4.9-15.2-4.9
		s-10.9,1.8-15.2,4.9l-2-2l5.5-5.5l-5.5-5.5l-5.5,5.5l-5.5-5.5h5.5V1.4H10.9V1.6z M51.8,24.1c10.5,0,19,8.7,19,19
		c0,10.5-8.7,19-19,19s-19-8.7-19-19C32.8,32.8,41.1,24.1,51.8,24.1L51.8,24.1z"/>
</g>
<g id="lock">
	<path style="fill:#FFFEF1;" d="M78.7,49c1.6,0,3,0.6,4.2,1.6c1.2,1,1.6,2.4,1.6,4.2v34.8c0,1.6-0.6,3-1.6,4.2
		c-1,1.2-2.4,1.6-4.2,1.6H20.6c-1.6,0-3-0.6-4.2-1.6c-1.2-1.2-1.6-2.4-1.6-4.2V54.7c0-1.6,0.6-3,1.6-4.2c1.2-1.2,2.4-1.6,4.2-1.6h2
		V29.4c0-7.5,2.6-13.8,7.9-19.2s11.7-7.9,19.2-7.9s13.8,2.6,19.2,7.9s7.9,11.7,7.9,19.2c0,1.2-0.4,2-1.2,2.8
		c-0.8,0.8-1.6,1.2-2.8,1.2H69c-1.2,0-2-0.4-2.8-1.2c-0.8-0.8-1.2-1.6-1.2-2.8c0-4.2-1.6-7.9-4.5-10.9c-3-3-6.7-4.5-10.9-4.5
		s-7.9,1.6-10.9,4.5c-3,3-4.5,6.7-4.5,10.9v19.4h44.5V49z"/>
</g>
<g id="child">
	<circle style="fill:#FFFEF1;" cx="46.4" cy="13.2" r="10.3"/>
	<path style="fill:#FFFEF1;" d="M18.6,46.2C17,48,17,50.8,18.8,52.4c0.8,0.8,2,1.2,3,1.2c1.2,0,2.4-0.4,3.2-1.4l9.5-10.7V54l-1.2,36
		c-0.2,3,2,5.1,4.9,5.3h0.2c2.8,0,4.9-2.2,5.1-4.9l1-27.1h4L52,90.7c0.2,2.6,2.4,4.3,5.1,4.3c0.2,0,0.4,0,0.6,0
		c2.8-0.4,4.7-3,4.3-5.7L56.9,51l-0.2-15.6L68,30.2c1.2-0.6,2.2-1.6,2.4-3l4.5-17.6c0.6-2.4-0.8-4.7-3.2-5.5
		c-2.4-0.8-4.7,0.8-5.5,3.2l-4,15.6l-9.1,4.2H37.4c-0.2,0-0.4,0-0.6,0.2c-0.8,0.2-1.8,0.6-2.4,1.2L18.6,46.2z"/>
</g>
<g id="brain">
	<path style="fill:#2D2D2D;" d="M27.9,35c-1.6,0.4-2.4,2-2,3.4c0.4,1.6,2,2.4,3.4,2.2c1.6-0.4,2.4-2,2-3.4
		C30.8,35.6,29.4,34.6,27.9,35z"/>
	<path style="fill:#2D2D2D;" d="M53.6,23.1c-3.4,0-5.9,2.6-5.9,5.7s2.8,5.7,5.9,5.7c3.4,0,5.9-2.6,5.9-5.7
		C59.5,25.7,56.7,23.1,53.6,23.1z"/>
	<path style="fill:#2D2D2D;" d="M90.5,56.1l-0.6-2l-0.6-2l-0.8-1.8l-0.6-1.8l-0.8-1.8l-0.6-1.8L86,43.3l-0.4-1.8v-0.8l0.4-0.8
		l0.4-0.8v-0.8L86,36.8l-0.4-1.6l-0.4-1.6L84.8,32l-0.6-1.6l-0.6-1.6L83,27.3l-0.6-1.6l-0.6-1.4L81,22.9l-0.8-1.4l2.2-1.4l-0.8-1.4
		l-0.8-1.2L80,16.4l-0.8-1.2l-0.8-1l-0.8-1l-0.8-0.8l-1-0.8l-1-0.8l2-0.8l-1-0.8l-1-0.8l-1-0.6l-1-0.6l-1.2-0.6l-1.2-0.6l-1.2-0.6
		l-1.2-0.4L67,4.7l-1.2-0.4L64.4,4L63,3.6l-1.4-0.4l-1.4-0.4l-1.6-0.4l-1.4-0.2L55.7,2l-1.6-0.2h-1.4h-1.6h-1.4h-1.6h-1.6h-1.4
		L43.7,2l-1.4,0.2l-1.6,0.2l-1.6,0.4L37.5,3L36,3.4l-1.6,0.4l-1.6,0.4l-1.6,0.4l-1.4,0.6l-1.4,0.6l-1.4,0.6l-1.4,0.6l-1.4,0.8
		l-1.4,0.8l-1.4,0.8l-1.2,1l-1.2,1l-1.2,1l-1,1l-1,1l-1,1.2l-1,1.2l-1,1.2L12.3,19l-0.8,1.4l-0.8,1.4l-0.6,1.4l-0.6,1.4l-0.6,1.4
		l-0.4,1.4l-0.4,1.4L7.7,30l-0.2,1.4l-0.4,3l-0.2,3v3l0.2,3l0.4,3L8.3,49l1,2.8l7.1,11.7c12.3,12.6,11.7,25.1,11.7,25.1v2.6v7.7
		h42.5l0.2-0.8v-2.4v-2.4l0.2-5.5l0.2-2.8l0.2-0.6l0.2-0.6l0.2-0.4l0.4-0.4l0.4-0.2l0.6-0.2l0.6-0.2l0.6-0.2h0.8h0.8h0.2h0.8h0.8
		l0.8,0.2h0.8l0.8,0.2h0.8h-2l1,0.2h1h1h0.6l0.6-0.2l0.6-0.2l0.6-0.2l0.6-0.4l0.4-0.4l0.4-0.4l0.4-0.4l0.2-1L86,78.5l-0.2-1.2v-1.2
		l0.2-0.4l0.2-0.4l0.2-0.4l0.2-0.4l0.2-0.4l0.2-0.4l0.2-0.4v-0.4v-0.6v-0.4L87,71.5l-0.2-0.4l-0.4-0.4L86,70.4L85.6,70L85,69.6
		l0.6-0.2l0.6-0.4l0.6-0.4l0.4-0.4l0.4-0.4l0.2-0.4l0.2-0.4l-0.2-0.4l-0.6-1.8l-0.4-1.6l-0.2-1.4v-1.4l0.8-0.4l0.8-0.4l0.6-0.4
		l0.6-0.4l0.4-0.4l0.2-0.4l0.2-0.4L90.5,56.1z M35.2,38.1L35,39.3c0,0,1.6,2,1.6,2.2l-1,1.6c0,0.2-2.6-0.4-2.6-0.4l-1,0.8L31.6,46
		l-1.8,0.4c-0.2,0-1.6-2.2-1.6-2.2l-1.2-0.2c0,0-2,1.6-2.2,1.6l-1.6-1c-0.2,0,0.4-2.6,0.4-2.6l-0.6-1l-2.6-0.4l-0.4-2
		c0-0.2,2-1.6,2-1.6l0.2-1.2l-1.6-2.2l1-1.6c0-0.2,2.6,0.4,2.6,0.4l1-0.6l0.4-2.6l1.8-0.4c0.2,0,1.6,2.2,1.6,2.2l1.2,0.2
		c0,0,2-1.6,2.2-1.6l1.6,1c0.2,0-0.4,2.6-0.4,2.6l0.6,1l2.6,0.4l0.4,2L35.2,38.1z M72.1,31c0,0.2-5.1,2.2-5.1,2.2l-1,2.2
		c0,0,2.2,4.9,2,5.1l-3,2.8c-0.2,0.2-5.1-2-5.1-2l-2.4,1c0,0-2,4.9-2.4,4.9H51c-0.2,0-2.2-4.9-2.2-4.9l-2.4-1c0,0-4.9,2.2-5.1,2
		l-3-2.8c-0.2-0.2,2.2-4.9,2.2-4.9l-1-2.2c0,0-5.1-2-5.1-2.2v-4c0-0.2,5.1-2.2,5.1-2.2l1-2.2c0,0-2.2-4.9-2-5.1l3-2.8
		c0.2-0.2,5.1,2,5.1,2l2.2-1c0,0,2-4.9,2.4-4.9h4.2c0.2,0,2.2,4.9,2.2,4.9l2.2,1c0,0,4.9-2.2,5.1-2l3,2.8c0.2,0.2-2.2,4.9-2.2,4.9
		l1,2.2c0,0,5.1,2,5.1,2.2v4H72.1z"/>
</g>
</svg>
