<?xml version="1.0" encoding="utf-8"?>
<!-- Generator: Adobe Illustrator 17.0.0, SVG Export Plug-In . SVG Version: 6.00 Build 0)  -->
<!DOCTYPE svg PUBLIC "-//W3C//DTD SVG 1.1//EN" "http://www.w3.org/Graphics/SVG/1.1/DTD/svg11.dtd">
<svg version="1.1"
	 id="svg2" xmlns:ns="http://ns.adobe.com/SaveForWeb/1.0/" xmlns:dc="http://purl.org/dc/elements/1.1/" xmlns:cc="http://creativecommons.org/ns#" xmlns:rdf="http://www.w3.org/1999/02/22-rdf-syntax-ns#" xmlns:svg="http://www.w3.org/2000/svg"
	 xmlns="http://www.w3.org/2000/svg" xmlns:xlink="http://www.w3.org/1999/xlink" x="0px" y="0px" width="480px" height="560px"
	 viewBox="0 0 480 560" style="enable-background:new 0 0 480 560;" xml:space="preserve">
<path id="path5" style="fill:#FFFFF0;" d="M0,0v106.7h42.7v-32l32,32l-32,32l32,32l32-32l10.7,10.5c-21.2,26.7-33.8,60.3-33.8,96.9
	c0,78.1,57.4,143.2,132.6,154.7L216,456h-61.3v48H216v56h48v-56h61.3v-48H264v-55.3l0,0c74.9-11.6,132.5-76.6,132.5-154.6
	c0-36.5-12.6-70.1-33.7-96.8l74.5-74.6V144H480V0H336v42.7h69.3l-75.4,75.4c-25.5-18-56.5-28.6-89.9-28.6s-64.5,10.6-89.9,28.6
	l-11.5-11.4l32-32l-32-32l-32,32l-32-32h32V0H0z M240,133.4c61.7,0,112,50.3,112,112s-50.3,112-112,112s-112-50.3-112-112
	S178.3,133.4,240,133.4L240,133.4z"/>
</svg>
